<svg height="170pt" preserveAspectRatio="xMidYMid meet" viewBox="0 0 363 170" width="363pt" xmlns="http://www.w3.org/2000/svg"><g transform="matrix(.1 0 0 -.1 0 170)"><path d="m1401 1566c-77-26-130-99-131-181 0-91 56-139 204-170 154-33 196-65 181-142-7-41-43-69-106-82-100-22-188 21-210 101-9 36-12 38-49 38s-40-2-40-27c1-44 34-107 75-141 105-86 334-59 393 47 28 50 30 132 3 181-25 47-76 74-190 100-130 30-155 42-170 78-11 27-11 36 5 69 26 51 55 64 136 61 58-3 71-8 97-32 17-16 33-42 36-57 6-26 11-29 46-29 37 0 39 1 39 33 0 86-87 155-207 162-43 3-84 0-112-9z"/><path d="m159 1398c-1-315 5-360 63-418 48-47 86-60 180-60 99 0 150 20 195 75 43 51 53 102 53 259v136h-39-39l-4-147c-3-168-16-204-78-235-49-25-136-24-178 2-63 39-72 76-72 328v222h-40-40z"/><path d="m1930 1254c-63-168-116-310-118-315s17-9 41-9c45 0 46 0 63 48 10 26 25 67 35 92l17 45h122 122l33-90 32-90 47-3c25-2 46 0 46 4s-50 146-112 316l-111 308h-51-51zm213 63 45-127h-94c-52 0-94 4-94 9 0 11 77 229 86 243s9 13 57-125z"/><path d="m2460 1245v-315h40 39l3 143 3 142 153 3 152 3v34 34l-152 3-153 3-3 93-3 92h181 180v40 40h-220-220z"/><path d="m3000 1245v-315h230 230v35 35l-187 2-188 3-3 108-3 107h176 175v35 35h-175-175v95 95h190 190v40 40h-230-230z"/><path d="m931 1389c-13-5-36-18-52-30l-29-20v25c0 24-4 26-40 26h-40v-230-230h40 40v128c0 161 6 196 40 232 32 34 67 45 115 36 57-11 65-38 65-231v-165h40 40l-1 178c0 201-8 235-58 269-36 25-114 31-160 12z"/><path d="m3090 438v-318h35 35v83c0 87 1 90 41 125l27 23 72-115 71-116h50 51l-23 38c-13 20-54 84-91 141-37 58-68 108-68 111s36 41 80 85 80 82 80 86c0 3-21 4-47 2-45-4-54-11-138-94-50-49-93-89-97-89s-7 78-7 173v172l-35 6-36 6z"/><path d="m1650 721v-28l97-6c73-4 103-10 122-25 30-22 43-73 29-114-17-49-50-58-218-58h-150v-180-179l118-3c187-5 254 4 298 37 48 37 78 104 71 161-6 54-28 89-74 116l-35 21 27 20c81 60 67 200-25 247-32 16-59 20-150 20h-110zm242-325c34-22 50-74 37-120-11-42-33-61-84-75-43-12-193-15-219-5-13 5-16 25-16 116v110l128-4c103-3 132-7 154-22z"/><path d="m2179 569c-42-25-55-44-64-93l-7-36h36c32 0 38 4 48 31 26 74 184 78 202 4 12-49-13-71-91-79-97-10-139-23-175-55-26-23-32-37-36-84-5-65 10-96 61-127 61-37 183-18 227 35 12 14 15 13 26-14 9-23 21-31 48-37 47-8 62-1 68 31 5 26 4 28-39 41-10 2-13 44-13 164 0 92-4 170-10 181-32 58-205 82-281 38zm215-251c-1-18-2-41-3-51-2-29-54-74-98-86-47-13-98 0-113 29-30 56 8 104 88 115 26 4 61 11 77 15 48 13 51 12 49-22z"/><path d="m2633 582-33-3v-230-229h40 40v156c0 139 2 160 20 189 39 63 135 74 174 22 19-26 21-44 24-198l3-169h41 40l-4 188c-5 207-13 238-68 267-59 31-173 15-209-29-19-23-29-20-33 12-3 24-7 27-35 24z"/></g></svg>