<svg xmlns="http://www.w3.org/2000/svg" xmlns:xlink="http://www.w3.org/1999/xlink" width="409" height="300.054" viewBox="0 0 409 300.054"><defs><linearGradient id="a" x1="0.5" y1="1" x2="0.5" gradientUnits="objectBoundingBox"><stop offset="0" stop-color="gray" stop-opacity="0.251"/><stop offset="0.54" stop-color="gray" stop-opacity="0.122"/><stop offset="1" stop-color="gray" stop-opacity="0.102"/></linearGradient><linearGradient id="b" x1="9.926" x2="9.926" y2="0" xlink:href="#a"/></defs><g transform="translate(0 0.001)"><path d="M195.286,302.186c-5.379,1.625-10.414,5.56-11.758,11.019-1.537,6.274,2.007,12.6,2.519,19.039,1.654,21.105-28.37,36-24.087,56.727,1.7,8.243,8.575,14.307,15.348,19.316,10.851,8,22.89,15.067,36.222,17.061,20.236,3.032,41.379-5.879,61.048-.248,15.865,4.544,28,17.859,43.76,22.772,11.993,3.741,24.914,2.268,37.373.752,6.719-.815,13.757-1.755,19.178-5.786,10.078-7.5,10.712-22.323,17.46-32.943,10.422-16.377,33.274-19.593,52.435-16.41s37.768,11.019,57.18,10.38c4.149-.139,8.4-.7,12.018-2.738,4.4-2.473,7.374-6.832,10-11.145a180.334,180.334,0,0,0,26.148-89.607c.113-5.438-.08-11.111-2.637-15.911-3.233-6.072-9.7-9.7-16.129-12.148-15.449-5.879-32.514-6.841-47.652-13.471-14.6-6.4-26.425-17.611-39.141-27.223a208.485,208.485,0,0,0-85.869-38.242c-7.3-1.411-14.882-2.419-22.138-.789-8.361,1.877-15.566,7.088-22.046,12.7-17.238,14.924-31.053,33.337-46.939,49.693a267.232,267.232,0,0,1-35.66,30.751c-5.879,4.237-12.127,9.268-18.678,12.4C207.25,301,201.627,300.275,195.286,302.186Z" transform="translate(-141.159 -150.176)" fill="#007bff" opacity="0.2"/><path d="M390.545,138.88s-16.23,21.554-4.619,46.678-20.236,65.491-20.236,65.491" transform="translate(-259.581 -119.505)" fill="none" stroke="#535461" stroke-miterlimit="10" stroke-width="2"/><path d="M427.714,104.048c-1.289,5.547-7.458,8.852-7.458,8.852s-4.073-5.69-2.784-11.237,4.619-9.511,7.458-8.852S429,98.5,427.714,104.048Z" transform="translate(-289.472 -92.74)" fill="#8ed16f"/><ellipse cx="3.238" cy="1.214" rx="3.238" ry="1.214" transform="translate(131 12.944) rotate(-76.9)" fill="#8ed16f"/><ellipse cx="3.238" cy="1.214" rx="3.238" ry="1.214" transform="translate(131 12.944) rotate(-76.9)" opacity="0.3"/><path d="M419.665,163.169c-5.358,1.932-11.485-1.453-11.485-1.453s2.562-6.513,7.924-8.44,10.5-1.26,11.485,1.453S425.023,161.237,419.665,163.169Z" transform="translate(-284.228 -127.216)" fill="#8ed16f"/><ellipse cx="3.238" cy="1.214" rx="3.238" ry="1.214" transform="matrix(0.94, -0.34, 0.34, 0.94, 130.063, 30.496)" fill="#8ed16f"/><ellipse cx="3.238" cy="1.214" rx="3.238" ry="1.214" transform="matrix(0.94, -0.34, 0.34, 0.94, 130.063, 30.496)" opacity="0.3"/><path d="M416.695,209.939c-5.358,1.932-11.485-1.453-11.485-1.453s2.561-6.513,7.924-8.44,10.5-1.26,11.485,1.453S422.053,208.011,416.695,209.939Z" transform="translate(-282.505 -154.346)" fill="#8ed16f"/><ellipse cx="3.238" cy="1.214" rx="3.238" ry="1.214" transform="translate(128.878 50.425) rotate(-19.8)" fill="#8ed16f"/><ellipse cx="3.238" cy="1.214" rx="3.238" ry="1.214" transform="translate(128.878 50.425) rotate(-19.8)" opacity="0.3"/><path d="M431.6,264.809c-5.358,1.932-11.485-1.453-11.485-1.453s2.562-6.513,7.924-8.44,10.5-1.26,11.485,1.453S436.963,262.89,431.6,264.809Z" transform="translate(-291.154 -186.175)" fill="#8ed16f"/><ellipse cx="3.238" cy="1.214" rx="3.238" ry="1.214" transform="translate(135.14 73.476) rotate(-19.8)" fill="#8ed16f"/><ellipse cx="3.238" cy="1.214" rx="3.238" ry="1.214" transform="translate(135.14 73.476) rotate(-19.8)" opacity="0.3"/><path d="M421.9,314.989c-5.358,1.932-11.485-1.453-11.485-1.453s2.561-6.513,7.924-8.44,10.5-1.26,11.485,1.453S427.267,313.061,421.9,314.989Z" transform="translate(-285.528 -215.283)" fill="#8ed16f"/><ellipse cx="3.238" cy="1.214" rx="3.238" ry="1.214" transform="matrix(0.94, -0.34, 0.34, 0.94, 131.078, 94.197)" fill="#8ed16f"/><ellipse cx="3.238" cy="1.214" rx="3.238" ry="1.214" transform="matrix(0.94, -0.34, 0.34, 0.94, 131.078, 94.197)" opacity="0.3"/><path d="M371.952,175.185c3.956,4.1,10.947,3.779,10.947,3.779s.575-6.975-3.38-11.073-8.856-5.786-10.947-3.779S368,171.087,371.952,175.185Z" transform="translate(-260.707 -133.652)" fill="#8ed16f"/><ellipse cx="1.214" cy="3.238" rx="1.214" ry="3.238" transform="matrix(0.719, -0.695, 0.695, 0.719, 112.057, 36.264)" fill="#8ed16f"/><ellipse cx="1.214" cy="3.238" rx="1.214" ry="3.238" transform="matrix(0.719, -0.695, 0.695, 0.719, 112.057, 36.264)" opacity="0.3"/><path d="M366.542,330.175c3.956,4.1,10.947,3.779,10.947,3.779s.575-6.975-3.38-11.073-8.856-5.786-10.947-3.779S362.586,326.077,366.542,330.175Z" transform="translate(-257.569 -223.558)" fill="#8ed16f"/><ellipse cx="1.214" cy="3.238" rx="1.214" ry="3.238" transform="matrix(0.719, -0.695, 0.695, 0.719, 109.779, 101.353)" fill="#8ed16f"/><ellipse cx="1.214" cy="3.238" rx="1.214" ry="3.238" transform="matrix(0.719, -0.695, 0.695, 0.719, 109.779, 101.353)" opacity="0.3"/><path d="M375.088,230.824c5.1,2.545,11.577-.1,11.577-.1s-1.785-6.765-6.878-9.31-10.28-2.52-11.577.1S369.991,228.279,375.088,230.824Z" transform="translate(-260.87 -166.287)" fill="#8ed16f"/><ellipse cx="1.214" cy="3.238" rx="1.214" ry="3.238" transform="translate(113.211 59.285) rotate(-63.48)" fill="#8ed16f"/><ellipse cx="1.214" cy="3.238" rx="1.214" ry="3.238" transform="translate(113.211 59.285) rotate(-63.48)" opacity="0.3"/><path d="M380.18,285.394c5.1,2.545,11.577-.1,11.577-.1s-1.785-6.765-6.878-9.31-10.28-2.519-11.577.1S375.1,282.874,380.18,285.394Z" transform="translate(-263.825 -197.942)" fill="#8ed16f"/><ellipse cx="1.214" cy="3.238" rx="1.214" ry="3.238" transform="translate(115.35 82.203) rotate(-63.48)" fill="#8ed16f"/><ellipse cx="1.214" cy="3.238" rx="1.214" ry="3.238" transform="translate(115.35 82.203) rotate(-63.48)" opacity="0.3"/><path d="M195.67,249.21s29.642,29.642,12.908,73.629,28.685,117.132,28.685,117.132-.487-.071-1.39-.231c-60.888-10.746-91.122-80.377-57.277-132.1C191.164,288.405,201.515,265.847,195.67,249.21Z" transform="translate(-142.874 -183.506)" fill="#8ed16f"/><path d="M113,534.208s33.824-5.388,36.907,24.926,65.041,34.517,65.041,34.517-.42.277-1.163.773c-51.159,33.594-100.063,21.391-92.693-23.2C123.838,554.642,123.611,537.992,113,534.208Z" transform="translate(-113 -348.613)" fill="#8ed16f"/><g transform="translate(0 185.225)" opacity="0.3"><path d="M113,534.208s33.824-5.388,36.907,24.926,65.041,34.517,65.041,34.517-.42.277-1.163.773c-51.159,33.594-100.063,21.391-92.693-23.2C123.838,554.642,123.611,537.992,113,534.208Z" transform="translate(-113 -533.838)" fill="#fff"/></g><ellipse cx="9.301" cy="24.267" rx="9.301" ry="24.267" transform="translate(34.933 136.687)" fill="#8ed16f"/><ellipse cx="9.301" cy="24.267" rx="9.301" ry="24.267" transform="translate(34.933 136.687)" opacity="0.3"/><ellipse cx="6.269" cy="13.954" rx="6.269" ry="13.954" transform="translate(19.219 233.788) rotate(-45)" fill="#8ed16f"/><ellipse cx="6.269" cy="13.954" rx="6.269" ry="13.954" transform="translate(19.219 233.788) rotate(-45)" opacity="0.3"/><path d="M518.872,358.2H298.692a10.032,10.032,0,0,0-10.032,10.032V497.286a10.032,10.032,0,0,0,10.032,10.032h220.18A10.032,10.032,0,0,0,528.9,497.286V368.232A10.032,10.032,0,0,0,518.872,358.2Z" transform="translate(-214.897 -246.729)" fill="url(#a)"/><rect width="234.588" height="145.607" rx="24.81" transform="translate(76.589 113.227)" fill="#007bff"/><rect width="234.588" height="26.694" transform="translate(76.589 138.707)" fill="#007bff"/><rect width="234.588" height="26.694" transform="translate(76.589 138.707)" opacity="0.3"/><rect width="190.097" height="12.942" transform="translate(98.836 185.222)" fill="#d6d6e3"/><circle cx="18.607" cy="18.607" r="18.607" transform="translate(96.002 211.916)" fill="#007bff"/><circle cx="18.607" cy="18.607" r="18.607" transform="translate(96.002 211.916)" opacity="0.3"/><path d="M822.186,235.508a4.073,4.073,0,0,0,1.793,2.268c3.859,2.549,12.249,2.007,13.257,2.007.214,0,.5.382.806,1.025a70.889,70.889,0,0,1,3.935,14.034c.206,2.44,2.473,13.857,6.185,18.111.113.13.227.252.336.365,3.641,3.657,7.911-.365,7.911-.365l.613-2.129c-.172.84-.365,1.818-.559,2.914-.1.55-.193,1.134-.286,1.734a66.455,66.455,0,0,0-.869,10.233,37.119,37.119,0,0,0,.16,3.729c.034.344.071.684.118,1.016a35.585,35.585,0,0,1,.277,4.552,123.729,123.729,0,0,1-2.339,20.278l.088-.029c-.055.281-.088.42-.088.42l.134-.042q-.1.626-.185,1.281c-.781,5.669-1.231,12.724-1.445,16.8a33.645,33.645,0,0,0,.285,6.433l4.1,28.853v13.437a23.722,23.722,0,0,0,.739,6.038c1.335,5.077.235,22.8-.382,31.2-.172,2.293-.306,3.9-.344,4.359v.139l.118-.046v.147a2.376,2.376,0,0,1,.546-.16c-1.625,2.52-4.569,6.685-6.832,7.386a7.168,7.168,0,0,0-3.414,2.263l-.059.08-.084.118a2.519,2.519,0,0,0-.491,1.285,1.413,1.413,0,0,1-.076-.248c-.172.936.391,1.793,2.158,2.209a14.535,14.535,0,0,0,3.128.252c6.131,0,17.011-1.885,18.212-3.914v-7l.2.063v.063l.752.248,2.062-6.92c2.473-1.831.42-34.6,0-42.126-.378-6.861,3.867-34.156,4.619-38.964l-.1-.122.113-.7a2.969,2.969,0,0,1,.42.369,5.487,5.487,0,0,1,.643.949,12.69,12.69,0,0,1,.911,1.881c4.149,10.347,6.017,39.934,6.017,42.588V411.7a28.983,28.983,0,0,0,1.134,8.117,34.786,34.786,0,0,1,.882,4.224c.088.559.164,1.113.235,1.642s.143,1.134.2,1.629a3.408,3.408,0,0,0,.042.374.737.737,0,0,1,0,.172c.113,1.1.172,1.814.172,1.814a.42.42,0,0,1,.084-.164l.021.265a.567.567,0,0,1,.164-.26,3.982,3.982,0,0,1,.554-.454v3.536l-.1-.076v.609c4.275,3.225,11.233,4.2,16.574,4.161,3.464,0,6.269-.42,7.244-.907,1.394-.684.63-2.28-.638-3.5a4.79,4.79,0,0,0-3.074-1.587c-1.352.147-5.975-5.089-8.4-7.957l.273-.122.386-.168V376.651s.622-18.317,2.473-36.432a64.448,64.448,0,0,0-3.17-27.026l-.059-.172.563.088c.6.092.915.147.915.147a3.485,3.485,0,0,0-.038-.42h.038s-.722-7.857-.731-17.725c0-11.187.945-24.826,4.854-32.544,2.251-4.443,3-7.978,2.939-10.767a11.262,11.262,0,0,0-2.011-6.887,5.459,5.459,0,0,0-2.314-1.831l-.08-.046h-.042a5.754,5.754,0,0,0-2.125-.42h-8.445a5.64,5.64,0,0,1-2.788-.735l-3.3-1.873a16.762,16.762,0,0,1-1.025-8.184c0-.223.042-.445.063-.663l.239-.252c.185-.2.357-.42.525-.609a4.641,4.641,0,0,1-.038.5c-.042.265-.113.42-.227.453,1.806-.235,3.821-.592,4.93-1.986.046-.055.088-.113.13-.172a9,9,0,0,0,.81-1.68,4.874,4.874,0,0,1,.617-1.125c.277-.361.638-.655.936-1l.05-.059c1.062-1.26,1.121-3.065,1.134-4.711.021-4-.1-8.4-2.771-11.4-2.221-2.494-5.765-3.439-9.129-3.548s-6.719.5-10.078.512c-2.284,0-5.039-.038-6.3,1.852-.617.928-.693,2.142-1.365,3.032-.386.512-.978.953-1.012,1.591a1.635,1.635,0,0,0,.218.84v.029a5.941,5.941,0,0,0,4.35,2.918,10.825,10.825,0,0,0-.84,1.159,11.035,11.035,0,0,0-1.68,5.879,6.859,6.859,0,0,0,.025.722,11.1,11.1,0,0,0,3.519,7.395c-.034.235-.067.47-.105.7l.076.067q.357.323.743.613l.092.071v.42a7.036,7.036,0,0,1-.025.731c-.025.239,0,.386-.025.579l-.055-.046-4.1-3.427-6.6-6.106s-16.494-12.005-17.322-6.3a4.111,4.111,0,0,0,.785,2.847c3.028,4.619,13.438,8.55,13.438,8.55a87.988,87.988,0,0,1,10.359,13.639c-.147.08-.294.155-.449.227-3.7,1.717-9.087.991-9.087.991-6.227.97-6.79,7.794-6.756,10.553v.571l-8.264-19.4-.025-.059a4.086,4.086,0,0,0-3.091-2.427C834.842,233.366,821.031,231.43,822.186,235.508Zm34.6,188.544a3.585,3.585,0,0,1,.365-.067l-.038.059Z" transform="translate(-524.346 -158.184)" fill="url(#b)"/><path d="M989.4,716.43s7.827,9.839,9.637,9.637,6.022,3.813,3.616,5.039-16.259,2.007-23.1-3.212v-7.865Z" transform="translate(-615.675 -454.531)" fill="#aca9c9"/><path d="M892.561,717.86s-4.619,8.23-7.827,9.238-6.022,4.619-1.806,5.623,19.274-1.205,20.677-3.616V718.46Z" transform="translate(-558.385 -455.361)" fill="#aca9c9"/><path d="M894.543,481.659l3.989,28.462v13.232a23.713,23.713,0,0,0,.722,5.954c1.3,5.01.231,22.487-.374,30.78-.2,2.7-.348,4.434-.348,4.434,2.608-1.205,13.651,2.608,13.651,2.608l1.117-3.8.89-3.023c2.41-1.806.42-34.127,0-41.572-.273-5.085,1.995-21.571,3.448-31.452.42-2.793.76-5.039.966-6.391.13-.84.2-1.306.2-1.306a4.4,4.4,0,0,1,1.083,1.306,12.577,12.577,0,0,1,.886,1.856c4.04,10.208,5.879,39.393,5.879,41.992v27.446a28.941,28.941,0,0,0,1.1,8.008,41.951,41.951,0,0,1,1.087,5.782c.286,2.179.42,3.935.42,3.935.2-1.205,12.648-6.626,12.648-6.626V517.511s.6-18.056,2.41-35.937a64.115,64.115,0,0,0-2.31-24.179c-.5-1.709-1-3.158-1.432-4.3-.735-1.953-1.26-3.032-1.26-3.032h-41c-.689.13-1.26,1.516-1.776,3.62-.336,1.411-.63,3.141-.886,5.039-.76,5.589-1.2,12.547-1.407,16.57a33.532,33.532,0,0,0,.29,6.37Z" transform="translate(-566.166 -300.015)" fill="#618fd8"/><g transform="translate(332.467 150.171)" opacity="0.1"><path d="M989.639,563.587V517.816s.6-18.056,2.41-35.937a62.6,62.6,0,0,0-5.039-31.519h.8a62.966,62.966,0,0,1,5.039,31.519c-1.784,17.868-2.41,35.937-2.41,35.937v45.771s-12.446,5.421-12.648,6.626a6,6,0,0,0-.063-.731C980.443,567.6,989.639,563.587,989.639,563.587Z" transform="translate(-947.08 -450.36)"/><path d="M905.844,722.326a3.117,3.117,0,0,0-1.1.227v-.2a7.175,7.175,0,0,1,1.1-.025Z" transform="translate(-904.74 -608.116)"/><path d="M937.452,601.337c2.41-1.806.42-34.127,0-41.572s4.619-39.145,4.619-39.145a3.5,3.5,0,0,1,.693.714c-.739,4.737-4.871,31.666-4.506,38.431.42,7.428,2.41,39.749,0,41.572l-2.007,6.824-.731-.244Z" transform="translate(-922.595 -491.117)"/></g><path d="M862.566,298.175l-4.2,14.857s-4.417,4.2-8.029,0-5.837-15.457-6.055-17.868-3.414-14.857-4.619-14.857-13.248.8-14.655-4.2c-1.125-4.023,12.32-2.1,17.7-1.2a3.989,3.989,0,0,1,3.011,2.394l8.256,19.715S858.35,291.952,862.566,298.175Z" transform="translate(-525.984 -197.685)" fill="#f7c4a7"/><path d="M948.289,249.82s-5.22,14.655,1.407,19.875-23.7,6.626-23.7,6.626l4.115-3.914s2.91-11.544.9-21.181Z" transform="translate(-584.606 -183.859)" fill="#f7c4a7"/><path d="M923.074,293.408s5.32-1.306,5.32-2.708l4.716,2.708h11.846s8.634,4.816,1.407,19.274-4.014,49.97-4.014,49.97-25.695-4.619-46.977,2.41c0,0,3.212-15.86,2.007-24.893s2.007-21.68,2.007-21.68l1.806-7.63s-.1-7.139-7.529-3.515c0,0-1.1-10.338,6.525-11.544,0,0,8.818,1.205,11.443-3.212C911.631,292.606,917.456,296.02,923.074,293.408Z" transform="translate(-565.816 -207.573)" opacity="0.1"/><path d="M923.074,292.458s5.321-1.306,5.321-2.708l3.456,1.986a5.46,5.46,0,0,0,2.713.722h8.285a5.46,5.46,0,0,1,4.439,2.259c1.9,2.675,3.607,7.949-.924,17.015-7.227,14.454-4.015,49.97-4.015,49.97s-25.695-4.619-46.976,2.41c0,0,3.212-15.86,2.007-24.893s2.007-21.651,2.007-21.651l1.806-7.63s-.1-7.139-7.529-3.515c0,0-1.075-10.053,6.211-11.489a2.059,2.059,0,0,1,.617-.042c1.558.164,8.818.689,11.145-3.246C911.631,291.652,917.456,295.066,923.074,292.458Z" transform="translate(-565.815 -207.022)" fill="#e14b5a"/><path d="M967.415,317.9s-6.425,4.014-16.864,0c0,0-11.443-4.2-15.058-12.446s18.266,1.407,18.266,1.407,4.619,0,6.022-1S971.026,313.484,967.415,317.9Z" transform="translate(-589.879 -214.199)" opacity="0.1"/><path d="M932.15,279.108s-6.425,4.014-16.864,0c0,0-11.443-4.2-15.058-12.446s-12.043-17.28-12.043-17.28-14.655-5.623-13.857-11.241,16.864,6.223,16.864,6.223l6.425,6.022,20.878,17.666s4.619,0,6.022-1S935.761,274.69,932.15,279.108Z" transform="translate(-554.613 -176.207)" fill="#f7c4a7"/><path d="M937.49,252.657l17.263-1.407a39.631,39.631,0,0,0-1.8,8.176,11.031,11.031,0,0,1-15.453.42A19.621,19.621,0,0,0,937.49,252.657Z" transform="translate(-591.271 -184.689)" opacity="0.1"/><circle cx="11.04" cy="11.04" r="11.04" transform="translate(342.91 55.425)" fill="#f7c4a7"/><path d="M943.931,229.7c-.647-1.067.668-2.457.235-3.624-.4-1.075-1.986-1.26-2.519-2.263-.42-.81,0-1.806-.168-2.7a2.774,2.774,0,0,0-2.662-1.932,9.5,9.5,0,0,0-3.439.76,13.2,13.2,0,0,1-5.665.873,5.94,5.94,0,0,1-4.678-2.969,1.68,1.68,0,0,1-.214-.815c.034-.63.613-1.062.987-1.566.655-.878.731-2.074,1.327-2.99,1.218-1.864,3.893-1.818,6.118-1.827,3.275,0,6.534-.613,9.809-.5s6.719,1.037,8.89,3.5c2.6,2.96,2.721,7.294,2.7,11.241,0,1.625-.067,3.393-1.1,4.648-.3.365-.672.668-.962,1.041-.63.84-.8,1.915-1.39,2.767-1.05,1.516-3.1,1.885-4.926,2.129.538-.071.092-3.67,0-4C945.917,229.811,945.535,229.845,943.931,229.7Z" transform="translate(-583.921 -160.836)" opacity="0.1"/><path d="M943.931,228.748c-.647-1.067.668-2.457.235-3.624-.4-1.075-1.986-1.26-2.519-2.263-.42-.81,0-1.806-.168-2.7a2.774,2.774,0,0,0-2.662-1.932,9.5,9.5,0,0,0-3.439.76,13.2,13.2,0,0,1-5.665.873,5.94,5.94,0,0,1-4.678-2.969,1.68,1.68,0,0,1-.214-.815c.034-.63.613-1.062.987-1.566.655-.878.731-2.074,1.327-2.99,1.218-1.864,3.893-1.818,6.118-1.827,3.275,0,6.534-.613,9.809-.5s6.719,1.037,8.89,3.5c2.6,2.96,2.721,7.294,2.7,11.241,0,1.625-.067,3.393-1.1,4.648-.3.365-.672.668-.962,1.041-.63.84-.8,1.915-1.39,2.767-1.05,1.516-3.1,1.885-4.926,2.129.538-.071.092-3.67,0-4C945.917,228.84,945.535,228.89,943.931,228.748Z" transform="translate(-583.921 -160.284)" fill="#281c1c"/><path d="M997.3,320.689s-5.421-14.055-9.637-14.454,8.029,0,8.029,0l4.014,7.227Z" transform="translate(-619.861 -216.482)" opacity="0.1"/><path d="M998.257,320.689s-5.421-14.055-9.637-14.454,8.029,0,8.029,0l4.014,7.227Z" transform="translate(-620.418 -216.482)" fill="#e14b5a"/><path d="M976.65,717.949c.286,2.179.42,3.935.42,3.935.2-1.205,12.648-6.626,12.648-6.626v-3.263a5.524,5.524,0,0,0-.949.046,17.907,17.907,0,0,0-6.719,2.746A61.266,61.266,0,0,1,976.65,717.949Z" transform="translate(-613.987 -451.956)" fill="#618fd8"/><path d="M976.65,717.949c.286,2.179.42,3.935.42,3.935.2-1.205,12.648-6.626,12.648-6.626v-3.263a5.524,5.524,0,0,0-.949.046,17.907,17.907,0,0,0-6.719,2.746A61.266,61.266,0,0,1,976.65,717.949Z" transform="translate(-613.987 -451.956)" opacity="0.3"/><path d="M904.5,716.151c2.608-1.205,13.651,2.608,13.651,2.608l1.117-3.8c-1.927-.39-3.842-.878-5.724-1.457a19.042,19.042,0,0,1-2.57-.949,17.2,17.2,0,0,0-1.713-.8,8.888,8.888,0,0,0-4.418-.038C904.651,714.42,904.5,716.151,904.5,716.151Z" transform="translate(-572.134 -451.644)" fill="#618fd8"/><path d="M904.5,716.151c2.608-1.205,13.651,2.608,13.651,2.608l1.117-3.8c-1.927-.39-3.842-.878-5.724-1.457a19.042,19.042,0,0,1-2.57-.949,17.2,17.2,0,0,0-1.713-.8,8.888,8.888,0,0,0-4.418-.038C904.651,714.42,904.5,716.151,904.5,716.151Z" transform="translate(-572.134 -451.644)" opacity="0.3"/><path d="M1002.4,745.452a1.2,1.2,0,0,0,.689-.8,1.18,1.18,0,0,1-.689,1.4c-2.41,1.205-16.259,2.007-23.1-3.212v-.6C986.136,747.46,999.985,746.658,1002.4,745.452Z" transform="translate(-615.524 -469.503)" fill="#fff" opacity="0.4"/><path d="M882.678,746.806c4.2,1,19.274-1.205,20.677-3.616v.6c-1.407,2.41-16.461,4.619-20.677,3.616-1.722-.42-2.272-1.26-2.1-2.179C880.713,745.907,881.343,746.47,882.678,746.806Z" transform="translate(-558.24 -470.054)" fill="#fff" opacity="0.4"/><path d="M920.279,402.666s-4.418-1.407-5.623,0-11.506,4.7-11.506,4.7" transform="translate(-571.351 -272.16)" opacity="0.1"/><rect width="21.479" height="0.454" transform="translate(320.423 75.346) rotate(180)" fill="#8ed16f"/><rect width="21.479" height="0.454" transform="translate(320.423 75.799) rotate(180)" fill="#8ed16f"/><rect width="21.479" height="0.454" transform="translate(320.423 75.799) rotate(180)" opacity="0.1"/><rect width="21.479" height="0.454" transform="translate(320.423 76.253) rotate(180)" fill="#8ed16f"/><rect width="21.479" height="0.454" transform="translate(320.423 76.702) rotate(180)" fill="#8ed16f"/><rect width="21.479" height="0.454" transform="translate(320.423 76.702) rotate(180)" opacity="0.1"/><rect width="21.479" height="0.454" transform="translate(320.423 77.156) rotate(180)" fill="#8ed16f"/><rect width="21.479" height="0.454" transform="translate(320.423 77.605) rotate(180)" fill="#8ed16f"/><rect width="21.479" height="0.454" transform="translate(320.423 77.605) rotate(180)" opacity="0.1"/><rect width="21.479" height="0.454" transform="translate(320.423 78.058) rotate(180)" fill="#8ed16f"/><rect width="21.479" height="0.454" transform="translate(320.423 78.508) rotate(180)" fill="#8ed16f"/><rect width="21.479" height="0.454" transform="translate(320.423 78.508) rotate(180)" opacity="0.1"/><rect width="21.479" height="0.454" transform="translate(320.423 71.734) rotate(180)" fill="#8ed16f"/><rect width="21.479" height="0.454" transform="matrix(-0.769, -0.639, 0.639, -0.769, 330.652, 74.732)" fill="#8ed16f"/><rect width="21.479" height="0.454" transform="matrix(-0.769, -0.639, 0.639, -0.769, 315.596, 67.506)" fill="#8ed16f"/><rect width="21.479" height="0.454" transform="translate(320.423 72.184) rotate(180)" fill="#8ed16f"/><rect width="21.479" height="0.454" transform="translate(320.423 72.184) rotate(180)" opacity="0.1"/><rect width="21.479" height="0.454" transform="translate(320.423 72.641) rotate(180)" fill="#8ed16f"/><rect width="21.479" height="0.454" transform="translate(320.423 73.091) rotate(180)" fill="#8ed16f"/><rect width="21.479" height="0.454" transform="translate(320.423 73.091) rotate(180)" opacity="0.1"/><rect width="21.479" height="0.454" transform="translate(320.423 73.54) rotate(180)" fill="#8ed16f"/><rect width="21.479" height="0.454" transform="translate(320.423 73.994) rotate(180)" fill="#8ed16f"/><rect width="21.479" height="0.454" transform="translate(320.423 73.994) rotate(180)" opacity="0.1"/><rect width="21.479" height="0.454" transform="translate(320.423 74.443) rotate(180)" fill="#8ed16f"/><rect width="21.479" height="0.454" transform="translate(320.423 74.896) rotate(180)" fill="#8ed16f"/><rect width="21.479" height="0.454" transform="translate(320.423 74.896) rotate(180)" opacity="0.1"/><rect width="7.827" height="15.256" transform="translate(303.918 93.934) rotate(-169.48)" fill="#8ed16f"/><ellipse cx="3.212" cy="1.604" rx="3.212" ry="1.604" transform="translate(299.406 88.634) rotate(-79.48)" fill="#8ed16f"/><ellipse cx="3.212" cy="1.604" rx="3.212" ry="1.604" transform="translate(299.406 88.634) rotate(-79.48)" opacity="0.1"/><rect width="7.827" height="15.256" transform="translate(305.235 125.593) rotate(-169.48)" fill="#8ed16f"/><ellipse cx="3.212" cy="1.604" rx="3.212" ry="1.604" transform="translate(300.719 120.289) rotate(-79.48)" fill="#8ed16f"/><ellipse cx="3.212" cy="1.604" rx="3.212" ry="1.604" transform="translate(300.719 120.289) rotate(-79.48)" opacity="0.1"/><rect width="7.827" height="15.256" transform="matrix(0.476, -0.879, 0.879, 0.476, 265.978, 53.231)" fill="#8ed16f"/><ellipse cx="1.608" cy="3.22" rx="1.608" ry="3.22" transform="translate(272.26 53.584) rotate(-61.39)" fill="#8ed16f"/><ellipse cx="1.608" cy="3.22" rx="1.608" ry="3.22" transform="translate(272.26 53.584) rotate(-61.39)" opacity="0.1"/><rect width="7.827" height="15.256" transform="matrix(0.476, -0.879, 0.879, 0.476, 236.517, 189.085)" fill="#8ed16f"/><ellipse cx="1.604" cy="3.212" rx="1.604" ry="3.212" transform="matrix(0.476, -0.879, 0.879, 0.476, 241.457, 189.247)" fill="#8ed16f"/><ellipse cx="1.604" cy="3.212" rx="1.604" ry="3.212" transform="matrix(0.476, -0.879, 0.879, 0.476, 241.457, 189.247)" opacity="0.1"/><rect width="7.827" height="15.256" transform="matrix(0.476, -0.879, 0.879, 0.476, 218.493, 76.974)" fill="#8ed16f"/><ellipse cx="1.604" cy="3.212" rx="1.604" ry="3.212" transform="matrix(0.476, -0.879, 0.879, 0.476, 223.428, 77.13)" fill="#8ed16f"/><ellipse cx="1.604" cy="3.212" rx="1.604" ry="3.212" transform="matrix(0.476, -0.879, 0.879, 0.476, 223.428, 77.13)" opacity="0.1"/><rect width="7.827" height="15.256" transform="matrix(0.476, -0.879, 0.879, 0.476, 241.084, 53.229)" fill="#8ed16f"/><ellipse cx="1.604" cy="3.212" rx="1.604" ry="3.212" transform="matrix(0.476, -0.879, 0.879, 0.476, 246.02, 53.385)" fill="#8ed16f"/><ellipse cx="1.604" cy="3.212" rx="1.604" ry="3.212" transform="matrix(0.476, -0.879, 0.879, 0.476, 246.02, 53.385)" opacity="0.1"/><rect width="7.827" height="15.256" transform="matrix(0.994, -0.109, 0.109, 0.994, 259.585, 75.214)" fill="#8ed16f"/><ellipse cx="1.604" cy="3.212" rx="1.604" ry="3.212" transform="matrix(0.994, -0.109, 0.109, 0.994, 262.258, 79.365)" fill="#8ed16f"/><ellipse cx="1.604" cy="3.212" rx="1.604" ry="3.212" transform="matrix(0.994, -0.109, 0.109, 0.994, 262.258, 79.365)" opacity="0.1"/><rect width="7.827" height="15.256" transform="matrix(0.994, -0.109, 0.109, 0.994, 312.932, 158.257)" fill="#8ed16f"/><ellipse cx="1.604" cy="3.212" rx="1.604" ry="3.212" transform="matrix(0.994, -0.109, 0.109, 0.994, 315.609, 162.408)" fill="#8ed16f"/><ellipse cx="1.604" cy="3.212" rx="1.604" ry="3.212" transform="matrix(0.994, -0.109, 0.109, 0.994, 315.609, 162.408)" opacity="0.1"/><rect width="7.827" height="15.256" transform="matrix(0.476, -0.879, 0.879, 0.476, 233.171, 113.461)" fill="#8ed16f"/><ellipse cx="1.604" cy="3.212" rx="1.604" ry="3.212" transform="matrix(0.476, -0.879, 0.879, 0.476, 238.104, 113.623)" fill="#8ed16f"/><ellipse cx="1.604" cy="3.212" rx="1.604" ry="3.212" transform="matrix(0.476, -0.879, 0.879, 0.476, 238.104, 113.623)" opacity="0.1"/><rect width="7.827" height="15.256" transform="matrix(0.476, -0.879, 0.879, 0.476, 199.314, 103.791)" fill="#8ed16f"/><ellipse cx="1.608" cy="3.22" rx="1.608" ry="3.22" transform="translate(205.354 104.384) rotate(-61.39)" fill="#8ed16f"/><ellipse cx="1.608" cy="3.22" rx="1.608" ry="3.22" transform="translate(205.354 104.384) rotate(-61.39)" opacity="0.1"/><rect width="7.827" height="15.256" transform="matrix(0.476, -0.879, 0.879, 0.476, 188.47, 266.596)" fill="#8ed16f"/><ellipse cx="1.604" cy="3.212" rx="1.604" ry="3.212" transform="matrix(0.476, -0.879, 0.879, 0.476, 193.405, 266.754)" fill="#8ed16f"/><ellipse cx="1.604" cy="3.212" rx="1.604" ry="3.212" transform="matrix(0.476, -0.879, 0.879, 0.476, 193.405, 266.754)" opacity="0.1"/><rect width="7.827" height="15.256" transform="translate(181.006 270.063) rotate(-79.49)" fill="#8ed16f"/><rect width="7.827" height="15.256" transform="translate(181.006 270.063) rotate(-79.49)" opacity="0.05"/><ellipse cx="1.604" cy="3.212" rx="1.604" ry="3.212" transform="translate(185.754 268.695) rotate(-79.49)" fill="#8ed16f"/><ellipse cx="1.604" cy="3.212" rx="1.604" ry="3.212" transform="translate(185.754 268.695) rotate(-79.49)" opacity="0.1"/><rect width="7.827" height="15.256" transform="translate(182.411 274.678) rotate(-79.49)" fill="#8ed16f"/><ellipse cx="1.604" cy="3.212" rx="1.604" ry="3.212" transform="translate(187.155 273.31) rotate(-79.49)" fill="#8ed16f"/><ellipse cx="1.604" cy="3.212" rx="1.604" ry="3.212" transform="translate(187.155 273.31) rotate(-79.49)" opacity="0.1"/><rect width="7.827" height="15.256" transform="matrix(0.476, -0.879, 0.879, 0.476, 204.296, 286.382)" fill="#8ed16f"/><ellipse cx="1.604" cy="3.212" rx="1.604" ry="3.212" transform="matrix(0.476, -0.879, 0.879, 0.476, 209.235, 286.54)" fill="#8ed16f"/><ellipse cx="1.604" cy="3.212" rx="1.604" ry="3.212" transform="matrix(0.476, -0.879, 0.879, 0.476, 209.235, 286.54)" opacity="0.1"/><rect width="7.827" height="15.256" transform="translate(196.836 289.844) rotate(-79.49)" fill="#8ed16f"/><rect width="7.827" height="15.256" transform="translate(196.836 289.844) rotate(-79.49)" opacity="0.05"/><ellipse cx="1.604" cy="3.212" rx="1.604" ry="3.212" transform="translate(201.579 288.476) rotate(-79.49)" fill="#8ed16f"/><ellipse cx="1.604" cy="3.212" rx="1.604" ry="3.212" transform="translate(201.579 288.476) rotate(-79.49)" opacity="0.1"/><rect width="7.827" height="15.256" transform="translate(198.24 294.464) rotate(-79.49)" fill="#8ed16f"/><ellipse cx="1.604" cy="3.212" rx="1.604" ry="3.212" transform="translate(202.987 293.096) rotate(-79.49)" fill="#8ed16f"/><ellipse cx="1.604" cy="3.212" rx="1.604" ry="3.212" transform="translate(202.987 293.096) rotate(-79.49)" opacity="0.1"/><rect width="7.827" height="15.256" transform="matrix(0.476, -0.879, 0.879, 0.476, 228.042, 273.631)" fill="#8ed16f"/><ellipse cx="1.604" cy="3.212" rx="1.604" ry="3.212" transform="matrix(0.476, -0.879, 0.879, 0.476, 232.973, 273.787)" fill="#8ed16f"/><ellipse cx="1.604" cy="3.212" rx="1.604" ry="3.212" transform="matrix(0.476, -0.879, 0.879, 0.476, 232.973, 273.787)" opacity="0.1"/><rect width="7.827" height="15.256" transform="translate(220.579 277.095) rotate(-79.49)" fill="#8ed16f"/><rect width="7.827" height="15.256" transform="translate(220.579 277.095) rotate(-79.49)" opacity="0.05"/><ellipse cx="1.604" cy="3.212" rx="1.604" ry="3.212" transform="translate(225.322 275.727) rotate(-79.49)" fill="#8ed16f"/><ellipse cx="1.604" cy="3.212" rx="1.604" ry="3.212" transform="translate(225.322 275.727) rotate(-79.49)" opacity="0.1"/><rect width="7.827" height="15.256" transform="translate(221.984 281.715) rotate(-79.49)" fill="#8ed16f"/><ellipse cx="1.604" cy="3.212" rx="1.604" ry="3.212" transform="translate(226.731 280.348) rotate(-79.49)" fill="#8ed16f"/><ellipse cx="1.604" cy="3.212" rx="1.604" ry="3.212" transform="translate(226.731 280.348) rotate(-79.49)" opacity="0.1"/></g></svg>