<svg id="be9f6829-3224-4753-912f-7f507815f1bf" data-name="Layer 1" xmlns="http://www.w3.org/2000/svg" xmlns:xlink="http://www.w3.org/1999/xlink" width="1167.52" height="779.03" viewBox="0 0 1167.52 779.03"><defs><linearGradient id="addcc5bc-03b4-4507-9835-d726e9cb4f1d" x1="588.17" y1="793.2" x2="588.17" y2="174.2" gradientUnits="userSpaceOnUse"><stop offset="0" stop-color="gray" stop-opacity="0.25"/><stop offset="0.54" stop-color="gray" stop-opacity="0.12"/><stop offset="1" stop-color="gray" stop-opacity="0.1"/></linearGradient><linearGradient id="e2504f94-45dd-4981-a816-a2f082e3b9ba" x1="556.2" y1="1179.83" x2="556.2" y2="1173.83" gradientTransform="translate(85.97 -1015.63)" xlink:href="#addcc5bc-03b4-4507-9835-d726e9cb4f1d"/><linearGradient id="e39136aa-3593-4907-8e63-1fd7210af8ba" x1="605.5" y1="651.51" x2="605.5" y2="444.51" xlink:href="#addcc5bc-03b4-4507-9835-d726e9cb4f1d"/><radialGradient id="ff6ab51b-9cbe-465e-bb4b-38096aabc913" cx="619.25" cy="488.58" r="10.84" gradientUnits="userSpaceOnUse"><stop offset="0" stop-color="#fff"/><stop offset="1"/></radialGradient><radialGradient id="f27ccdd2-fde5-49a7-9026-8eca3e6a77d9" cx="4409.64" cy="488.58" r="10.84" gradientTransform="matrix(-1, 0, 0, 1, 4999.95, 0)" xlink:href="#ff6ab51b-9cbe-465e-bb4b-38096aabc913"/><linearGradient id="b913257d-9419-4869-9ba2-4e2c570edd91" x1="194.53" y1="642.01" x2="372" y2="642.01" xlink:href="#addcc5bc-03b4-4507-9835-d726e9cb4f1d"/></defs><title>image post</title><ellipse cx="223.48" cy="748.04" rx="122.56" ry="30.99" fill="#ff9f00" opacity="0.1"/><g opacity="0.2"><path d="M1023.5,786.91a17.73,17.73,0,0,1-1.73,2.67q-8.64-6.09-17.57-11.93c.12-.25.25-.51.39-.76a16.84,16.84,0,0,1,6-6.52c3.29-2,7-2.48,10-.86s4.76,4.94,4.94,8.78A16.84,16.84,0,0,1,1023.5,786.91Z" transform="translate(-16.24 -60.49)" fill="#3f3d56"/><ellipse cx="1022.06" cy="766.76" rx="14.01" ry="10.7" transform="translate(-150.13 1250.62) rotate(-62.09)" fill="#3f3d56"/><ellipse cx="1030.07" cy="751.62" rx="14.01" ry="10.7" transform="translate(-132.49 1249.65) rotate(-62.09)" fill="#3f3d56"/><ellipse cx="1038.09" cy="736.49" rx="14.01" ry="10.7" transform="translate(-114.85 1248.68) rotate(-62.09)" fill="#3f3d56"/><ellipse cx="1046.11" cy="721.35" rx="14.01" ry="10.7" transform="translate(-97.2 1247.71) rotate(-62.09)" fill="#3f3d56"/><path d="M1065.55,599a51.89,51.89,0,0,1-.78-7l27,9.08-27-14A51.4,51.4,0,0,1,1083,550.64l26.16,37.82-20.31-42.07a51.28,51.28,0,1,1,48,90.35,51.19,51.19,0,0,1,.8,11l-41.15-.32,40.52,6.67a51.33,51.33,0,0,1-29.84,38.68,51.28,51.28,0,1,1-71.23-37.72,51.29,51.29,0,0,1,29.67-56Z" transform="translate(-16.24 -60.49)" fill="#ff9f00"/><path d="M1131.64,669.89a51,51,0,0,1-24.53,22.88,51.28,51.28,0,1,1-71.23-37.72C1033.89,644.12,1134.34,664.81,1131.64,669.89Z" transform="translate(-16.24 -60.49)" opacity="0.1"/></g><g opacity="0.2"><path d="M991.37,484.44a31.64,31.64,0,0,1-2.25,4.64Q974,481,958.51,473.42c.14-.43.3-.88.47-1.31a27.2,27.2,0,0,1,8.3-11.66c4.87-3.9,10.74-5.37,16-3.38s8.62,7,9.67,13.11A27.21,27.21,0,0,1,991.37,484.44Z" transform="translate(-16.24 -60.49)" fill="#3f3d56"/><ellipse cx="985.03" cy="452.35" rx="22.69" ry="17.33" transform="translate(195.63 1151.56) rotate(-69.16)" fill="#3f3d56"/><ellipse cx="994.89" cy="426.44" rx="22.69" ry="17.33" transform="translate(226.21 1144.08) rotate(-69.16)" fill="#3f3d56"/><ellipse cx="1004.76" cy="400.52" rx="22.69" ry="17.33" transform="translate(256.78 1136.6) rotate(-69.16)" fill="#3f3d56"/><ellipse cx="1014.62" cy="374.61" rx="22.69" ry="17.33" transform="translate(287.36 1129.13) rotate(-69.16)" fill="#3f3d56"/><path d="M1021.49,174.19a83.36,83.36,0,0,1-2.65-11.18l45.22,9.21L1017.9,155a83.11,83.11,0,0,1,21.91-62l49.56,55.53-41-63.53a83,83,0,1,1,95.09,135.6,83.42,83.42,0,0,1,3.46,17.51l-66.17,7.68,66.43,2.65a83.07,83.07,0,0,1-40.24,68.09,83,83,0,1,1-122-46.42,83,83,0,0,1,36.52-95.93Z" transform="translate(-16.24 -60.49)" fill="#ff9f00"/><path d="M1141.79,274.89a82.59,82.59,0,0,1-34.86,41.65,83,83,0,1,1-122-46.42C979.6,253,1145.11,266.19,1141.79,274.89Z" transform="translate(-16.24 -60.49)" opacity="0.1"/></g><g opacity="0.2"><path d="M194.62,570.65a37.29,37.29,0,0,0,2,5.8q19-7.28,38.43-14c-.11-.53-.22-1.08-.36-1.62a32.41,32.41,0,0,0-8.07-15c-5.18-5.32-11.89-7.92-18.34-6.34s-11.2,7-13.35,14A32.49,32.49,0,0,0,194.62,570.65Z" transform="translate(-16.24 -60.49)" fill="#3f3d56"/><ellipse cx="206.83" cy="533.72" rx="20.61" ry="26.98" transform="translate(-136.89 3.78) rotate(-13.72)" fill="#3f3d56"/><ellipse cx="199.01" cy="501.69" rx="20.61" ry="26.98" transform="translate(-129.52 1.01) rotate(-13.72)" fill="#3f3d56"/><ellipse cx="191.2" cy="469.66" rx="20.61" ry="26.98" transform="translate(-122.14 -1.76) rotate(-13.72)" fill="#3f3d56"/><ellipse cx="183.38" cy="437.62" rx="20.61" ry="26.98" transform="translate(-114.77 -4.53) rotate(-13.72)" fill="#3f3d56"/><path d="M204.82,200.12a97.86,97.86,0,0,0,4.78-12.8l-54.71,4.2,57-13.46a98.81,98.81,0,0,0-16.71-76.43L128.5,159.85l57.77-68.92a98.72,98.72,0,1,0-132.2,146,99.32,99.32,0,0,0-6.67,20.16l76.95,18.81-78.78-6.67A98.81,98.81,0,0,0,83,355.5a98.71,98.71,0,1,0,150.76-36.8,98.71,98.71,0,0,0-29-118.58Z" transform="translate(-16.24 -60.49)" fill="#ff9f00"/><path d="M48,301.21A98.29,98.29,0,0,0,83,355.5a98.71,98.71,0,1,0,150.76-36.8C242.64,299.25,45.39,290.45,48,301.21Z" transform="translate(-16.24 -60.49)" opacity="0.1"/></g><path d="M1072.54,174.2H103.8a8.64,8.64,0,0,0-8.63,8.66V775.74a17.43,17.43,0,0,0,17.4,17.46h951.2a17.43,17.43,0,0,0,17.4-17.46V182.86A8.65,8.65,0,0,0,1072.54,174.2Z" transform="translate(-16.24 -60.49)" fill="url(#addcc5bc-03b4-4507-9835-d726e9cb4f1d)"/><path d="M1077.25,211V772.25A17.26,17.26,0,0,1,1060,789.51H116.51a17.26,17.26,0,0,1-17.26-17.26V211Z" transform="translate(-16.24 -60.49)" fill="#fff"/><path d="M228.17,204.2V789.51H116.51a17.26,17.26,0,0,1-17.26-17.26v-568Z" transform="translate(-16.24 -60.49)" fill="#d7d9e1"/><path d="M1077.25,186.07V211h-978V186.07a8.56,8.56,0,0,1,8.56-8.56h960.88A8.56,8.56,0,0,1,1077.25,186.07Z" transform="translate(-16.24 -60.49)" fill="#ededf4"/><circle cx="98.51" cy="133.52" r="4" fill="#fa5959" opacity="0.8"/><circle cx="109.51" cy="133.52" r="4" fill="#fed253" opacity="0.8"/><circle cx="120.51" cy="133.52" r="4" fill="#8ccf4d" opacity="0.8"/><rect x="95.93" y="199.71" width="94" height="10" fill="#ededf4"/><rect x="95.93" y="228.71" width="94" height="10" fill="#ededf4"/><rect x="95.93" y="257.71" width="94" height="10" fill="#ededf4"/><rect x="95.93" y="286.71" width="94" height="10" fill="#ededf4"/><rect x="95.93" y="315.71" width="94" height="10" fill="#ededf4"/><rect x="640.17" y="158.2" width="4" height="6" transform="translate(787.13 -541.45) rotate(90)" fill="url(#e2504f94-45dd-4981-a816-a2f082e3b9ba)"/><rect x="358.76" y="217.03" width="552" height="344" fill="#ff9f00" opacity="0.1"/><rect x="834.76" y="600.03" width="76" height="24" fill="#ff9f00"/><rect x="315.76" y="243.29" width="557" height="351.48" fill="#d7d9e1"/><rect x="318.76" y="247.03" width="552" height="344" fill="#fff"/><path d="M649,353.51H597c-2.2,0-4,1.3-4,2.88v2.87a2.61,2.61,0,0,0,1.39,2.16H583c-2.2,0-4,1.29-4,2.88v2.87c0,1.58,1.8,2.88,4,2.88h1.14a2.19,2.19,0,0,0-.14.71v2.88c0,1.58,1.8,2.87,4,2.87h52c2.2,0,4-1.29,4-2.87v-2.88c0-1.58-1.8-2.87-4-2.87h-1.14a2.19,2.19,0,0,0,.14-.72V364.3a2.61,2.61,0,0,0-1.39-2.16H649c2.2,0,4-1.29,4-2.88v-2.87C653,354.81,651.2,353.51,649,353.51Z" transform="translate(-16.24 -60.49)" fill="#ff9f00" opacity="0.1"/><path d="M575,414.51H523c-2.2,0-4,1.3-4,2.88v2.87a2.61,2.61,0,0,0,1.39,2.16H509c-2.2,0-4,1.29-4,2.88v2.87c0,1.58,1.8,2.88,4,2.88h1.14a2.19,2.19,0,0,0-.14.71v2.88c0,1.58,1.8,2.87,4,2.87h52c2.2,0,4-1.29,4-2.87v-2.88c0-1.58-1.8-2.87-4-2.87h-1.14a2.19,2.19,0,0,0,.14-.72V425.3a2.61,2.61,0,0,0-1.39-2.16H575c2.2,0,4-1.29,4-2.88v-2.87C579,415.81,577.2,414.51,575,414.51Z" transform="translate(-16.24 -60.49)" fill="#ff9f00" opacity="0.1"/><path d="M700,425.51H648c-2.2,0-4,1.3-4,2.88v2.87a2.61,2.61,0,0,0,1.39,2.16H634c-2.2,0-4,1.29-4,2.88v2.87c0,1.58,1.8,2.88,4,2.88h1.14a2.19,2.19,0,0,0-.14.71v2.88c0,1.58,1.8,2.87,4,2.87h52c2.2,0,4-1.29,4-2.87v-2.88c0-1.58-1.8-2.87-4-2.87h-1.14a2.19,2.19,0,0,0,.14-.72V436.3a2.61,2.61,0,0,0-1.39-2.16H700c2.2,0,4-1.29,4-2.88v-2.87C704,426.81,702.2,425.51,700,425.51Z" transform="translate(-16.24 -60.49)" fill="#ff9f00" opacity="0.1"/><ellipse cx="595" cy="431.51" rx="4.96" ry="8.06" transform="translate(-121.16 595.39) rotate(-53.72)" fill="#ff9f00" opacity="0.1"/><ellipse cx="575" cy="327.51" rx="4.96" ry="8.06" transform="translate(-45.48 536.8) rotate(-53.72)" fill="#ff9f00" opacity="0.1"/><ellipse cx="641" cy="396.51" rx="4.96" ry="8.06" transform="translate(-74.16 618.19) rotate(-53.72)" fill="#ff9f00" opacity="0.1"/><g opacity="0.7"><path d="M460.49,651.51h-14a17.57,17.57,0,0,1,14,0Z" transform="translate(-16.24 -60.49)" fill="#3f3d56"/><path d="M476,643.51a37.22,37.22,0,0,1-.85,8h-43.3A37.94,37.94,0,0,1,433.13,631a32,32,0,0,1,2.56-5.48c4.11-7,10.56-11.45,17.81-11.45s13.7,4.48,17.81,11.45a32,32,0,0,1,2.5,5.31A37.1,37.1,0,0,1,476,643.51Z" transform="translate(-16.24 -60.49)" fill="#3f3d56"/><ellipse cx="437.26" cy="547.03" rx="22.5" ry="29.45" fill="#3f3d56"/><ellipse cx="437.26" cy="511.03" rx="22.5" ry="29.45" fill="#3f3d56"/><path d="M537.73,458.42a107.8,107.8,0,0,1-63.92,172.4c-2.59.51-5.21.93-7.86,1.23a107.59,107.59,0,0,1-24.74.13q-4.09-.43-8.08-1.19a107.78,107.78,0,0,1-64.82-172.57,107.81,107.81,0,0,1-17.38-101.21l81.83,27.47L356,344.81a107.91,107.91,0,0,1,12.29-19.66A107.57,107.57,0,0,1,357,307.51H513.78l32.33,5.31a109.12,109.12,0,0,1-8.38,12.33,107.35,107.35,0,0,1,23.06,66.64c0,.27,0,.55,0,.82a105.36,105.36,0,0,1-1,13.85q-.54,4.08-1.4,8.05a107.18,107.18,0,0,1-7.75,23c-.21.46-.43.91-.65,1.36a107.67,107.67,0,0,1-7.75,13.39c-1.38,2-2.82,4-4.34,5.93Z" transform="translate(-16.24 -60.49)" fill="#ff9f00"/><path d="M345.24,391.79a107.3,107.3,0,0,0,23.07,66.64,107.77,107.77,0,1,0,169.42,0C552.17,440.09,345.24,379.69,345.24,391.79Z" transform="translate(-16.24 -60.49)" opacity="0.1"/><path d="M785.3,651.51H745.7a31.05,31.05,0,0,1,2-4c4.11-7,10.56-11.45,17.81-11.45s13.7,4.48,17.81,11.45A31.05,31.05,0,0,1,785.3,651.51Z" transform="translate(-16.24 -60.49)" fill="#3f3d56"/><path d="M788,629.51a35.52,35.52,0,0,1-4.69,18,27.73,27.73,0,0,1-2.85,4H750.54a27.73,27.73,0,0,1-2.85-4,35.52,35.52,0,0,1-4.69-18c0-16.27,10.07-29.45,22.5-29.45S788,613.24,788,629.51Z" transform="translate(-16.24 -60.49)" fill="#3f3d56"/><path d="M849.9,516.19l-.17.23a107.35,107.35,0,0,1,23.06,66.64c0,1.71,0,3.42-.12,5.11,0,.48,0,1-.08,1.45l-.06,1c0,.59-.09,1.19-.15,1.78s-.1,1.28-.18,1.91-.16,1.55-.26,2.32l0,.25c-.07.57-.15,1.14-.24,1.7,0,.4-.11.8-.17,1.19-.24,1.56-.52,3.11-.83,4.64-.08.44-.18.88-.28,1.32s-.18.9-.29,1.35-.24,1-.37,1.54a3.89,3.89,0,0,1-.12.49c-.13.55-.27,1.09-.41,1.63s-.22.83-.35,1.25c-.16.62-.34,1.24-.53,1.86s-.37,1.22-.56,1.83q-1,3.32-2.3,6.52c-.28.71-.56,1.41-.85,2.11,0,0,0,0,0,0-.22.54-.45,1.07-.68,1.59-.13.3-.26.6-.4.9s-.32.73-.49,1.09-.43,1-.66,1.41c-.31.66-.63,1.32-1,2-.19.38-.38.76-.58,1.14q-2.13,4.15-4.63,8.09c-.39.62-.79,1.24-1.2,1.85,0,0,0,0,0,0q-.62.95-1.26,1.86L852.53,646q-2,2.84-4.27,5.54H681.77c-1.49-1.81-2.93-3.67-4.3-5.58l-.79-1.11c-.27-.39-.55-.78-.81-1.18l-.41-.61c-.34-.5-.67-1-1-1.51l-.36-.56c-.37-.58-.74-1.17-1.1-1.77-1.35-2.2-2.61-4.45-3.8-6.75-.2-.38-.4-.76-.58-1.14-.33-.65-.65-1.31-1-2q-.35-.69-.66-1.41c-.17-.36-.34-.72-.49-1.09s-.27-.6-.4-.9c-.23-.52-.46-1-.68-1.59,0,0,0,0,0,0-.29-.7-.57-1.4-.85-2.11-.84-2.14-1.6-4.31-2.3-6.52-.19-.61-.38-1.22-.56-1.83s-.37-1.24-.53-1.86c-.13-.42-.24-.83-.35-1.25s-.28-1.08-.41-1.63a3.89,3.89,0,0,1-.12-.49c-.13-.51-.25-1-.37-1.54s-.2-.9-.29-1.35-.2-.88-.28-1.32c-.31-1.53-.59-3.08-.83-4.64-.06-.39-.12-.79-.17-1.19-.09-.56-.17-1.13-.24-1.7l0-.25c-.1-.77-.19-1.55-.26-2.32s-.14-1.27-.18-1.91-.11-1.19-.15-1.78l-.06-1c0-.48-.06-1-.08-1.45-.08-1.69-.12-3.4-.12-5.11a107.3,107.3,0,0,1,23.07-66.64c-.58-.73-1.14-1.47-1.7-2.22l-.37-.5q-.65-.86-1.26-1.74l-.39-.55c-.48-.69-1-1.39-1.42-2.09a3.28,3.28,0,0,1-.2-.31c-.49-.74-1-1.48-1.44-2.24l-.3-.47c-.44-.73-.89-1.46-1.32-2.2l-.22-.38c-.45-.78-.89-1.56-1.32-2.35l-.15-.28c-.39-.71-.76-1.42-1.13-2.14-.92-1.79-1.8-3.61-2.61-5.46-.48-1.08-1-2.16-1.39-3.26l-.16-.4c-.28-.69-.55-1.38-.81-2.08s-.51-1.39-.76-2.09-.49-1.41-.72-2.11c-.38-1.16-.74-2.32-1.09-3.5-.09-.3-.18-.61-.26-.91-.19-.68-.38-1.36-.56-2.05a0,0,0,0,0,0,0c-.18-.72-.36-1.44-.53-2.16s-.31-1.31-.46-2l-.09-.42q-.24-1.12-.45-2.25c-.11-.57-.22-1.14-.31-1.72a4.63,4.63,0,0,1-.09-.49c-.11-.59-.2-1.18-.29-1.77q-.18-1.14-.33-2.28c-.11-.86-.22-1.72-.31-2.58,0-.13,0-.27,0-.4-.08-.79-.16-1.59-.21-2.38s-.12-1.42-.16-2.13c0-.53-.07-1.07-.09-1.61s0-.88-.05-1.32,0-.86,0-1.3q0-1.25,0-2.49v-.28a107.55,107.55,0,0,1,5.69-34.3l81.83,27.47L668,402.81a107.91,107.91,0,0,1,12.29-19.66,107.11,107.11,0,0,1-12.25-19.54,105.28,105.28,0,0,1-5.72-14.26,107.65,107.65,0,0,1-5.1-32.83c0-3,.13-6,.38-9H797.13L779.2,320.69l25.41-13.18h67.8c.26,3,.38,6,.38,9a107.35,107.35,0,0,1-9.86,45.06L799,361.11l59.12,9.71a109.12,109.12,0,0,1-8.38,12.33,107.79,107.79,0,0,1,.17,133Z" transform="translate(-16.24 -60.49)" fill="#ff9f00"/><path d="M872.79,583.06c0,1.71,0,3.42-.12,5.11,0,.48,0,1-.08,1.45l-.06,1c0,.59-.09,1.19-.15,1.78s-.1,1.28-.18,1.91-.16,1.55-.26,2.32l0,.25c-.07.57-.15,1.14-.24,1.7,0,.4-.11.8-.17,1.19-.24,1.56-.52,3.11-.83,4.64-.08.44-.18.88-.28,1.32s-.18.9-.29,1.35-.24,1-.37,1.54a3.89,3.89,0,0,1-.12.49c-.13.55-.27,1.09-.41,1.63s-.22.83-.35,1.25c-.16.62-.34,1.24-.53,1.86s-.37,1.22-.56,1.83q-1,3.32-2.3,6.52c-.28.71-.56,1.41-.85,2.11,0,0,0,0,0,0-.22.54-.45,1.07-.68,1.59-.13.3-.26.6-.4.9s-.32.73-.49,1.09-.43,1-.66,1.41c-.31.66-.63,1.32-1,2-.19.38-.38.76-.58,1.14q-2.13,4.15-4.63,8.09c-.39.62-.79,1.24-1.2,1.85,0,0,0,0,0,0q-.62.95-1.26,1.86L852.53,646q-2,2.84-4.27,5.54H681.77c-1.49-1.81-2.93-3.67-4.3-5.58l-.79-1.11c-.27-.39-.55-.78-.81-1.18l-.41-.61c-.34-.5-.67-1-1-1.51l-.36-.56c-.37-.58-.74-1.17-1.1-1.77-1.35-2.2-2.61-4.45-3.8-6.75-.2-.38-.4-.76-.58-1.14-.33-.65-.65-1.31-1-2q-.35-.69-.66-1.41c-.17-.36-.34-.72-.49-1.09s-.27-.6-.4-.9c-.23-.52-.46-1-.68-1.59,0,0,0,0,0,0-.29-.7-.57-1.4-.85-2.11-.84-2.14-1.6-4.31-2.3-6.52-.19-.61-.38-1.22-.56-1.83s-.37-1.24-.53-1.86c-.13-.42-.24-.83-.35-1.25s-.28-1.08-.41-1.63a3.89,3.89,0,0,1-.12-.49c-.13-.51-.25-1-.37-1.54s-.2-.9-.29-1.35-.2-.88-.28-1.32c-.31-1.53-.59-3.08-.83-4.64-.06-.39-.12-.79-.17-1.19-.09-.56-.17-1.13-.24-1.7l0-.25c-.1-.77-.19-1.55-.26-2.32s-.14-1.27-.18-1.91-.11-1.19-.15-1.78l-.06-1c0-.48-.06-1-.08-1.45-.08-1.69-.12-3.4-.12-5.11a107.3,107.3,0,0,1,23.07-66.64c-.58-.73-1.14-1.47-1.7-2.22l-.37-.5q-.65-.86-1.26-1.74l-.39-.55c-.48-.69-1-1.39-1.42-2.09a3.28,3.28,0,0,1-.2-.31c-.49-.74-1-1.48-1.44-2.24l-.3-.47c-.44-.73-.89-1.46-1.32-2.2l-.22-.38c-.45-.78-.89-1.56-1.32-2.35l-.15-.28c-.39-.71-.76-1.42-1.13-2.14-.92-1.79-1.8-3.61-2.61-5.46-.48-1.08-1-2.16-1.39-3.26l-.16-.4c-.28-.69-.55-1.38-.81-2.08s-.51-1.39-.76-2.09-.49-1.41-.72-2.11c-.38-1.16-.74-2.32-1.09-3.5-.09-.3-.18-.61-.26-.91-.19-.68-.38-1.36-.56-2.05a0,0,0,0,0,0,0c-.18-.72-.36-1.44-.53-2.16s-.31-1.31-.46-2l-.09-.42q-.24-1.12-.45-2.25c-.11-.57-.22-1.14-.31-1.72a4.63,4.63,0,0,1-.09-.49c-.11-.59-.2-1.18-.29-1.77q-.18-1.14-.33-2.28c-.11-.86-.22-1.72-.31-2.58,0-.13,0-.27,0-.4-.08-.79-.16-1.59-.21-2.38s-.12-1.42-.16-2.13c0-.53-.07-1.07-.09-1.61s0-.88-.05-1.32,0-.86,0-1.3q0-1.25,0-2.49a.66.66,0,0,1,0-.28c.55-1.83,6.83-1.65,16.81,0,7.93,1.31,18.18,3.55,29.77,6.45h0c59.74,14.94,154.66,47.39,146,60.23l-.17.23A107.35,107.35,0,0,1,872.79,583.06Z" transform="translate(-16.24 -60.49)" opacity="0.1"/><ellipse cx="568" cy="396.51" rx="13" ry="8" transform="translate(-130.25 457.29) rotate(-45)" fill="#ff9f00"/><ellipse cx="661" cy="359.51" rx="13" ry="8" transform="translate(-76.85 512.21) rotate(-45)" fill="#ff9f00"/><ellipse cx="873" cy="425.51" rx="13" ry="8" transform="translate(-61.43 681.45) rotate(-45)" fill="#ff9f00"/><ellipse cx="549" cy="447.51" rx="8" ry="13" transform="translate(-152.84 564.84) rotate(-53.72)" fill="#ff9f00"/><path d="M674,645.27a10.67,10.67,0,0,1-.6-1.54,13.47,13.47,0,0,1,.09-3.69V640a12.71,12.71,0,0,0-.29-2.6c-.6-3.28-1.19-6.57-1.78-9.85-.28-1.52-.55-3-.68-4.56s-.12-3.15-.14-4.72c-.08-5.1-1-10.17-1.18-15.26-.1-2.65-.31-5.3-.52-7.94-.37-4.55-.77-9.09-1.57-13.58-.63-3.56-2.42-6.88-2.45-10.5l-.06-5.63a10.74,10.74,0,0,0-.75-4.72,10.56,10.56,0,0,0-2.78-3.18l-.84-.71q-4-3.44-8.29-6.57h0c-.26-.21-.52-.4-.78-.59a6,6,0,0,0,3.11-.22,2.28,2.28,0,0,0,1.32-1.8,1.39,1.39,0,0,0-.13-.77,2.64,2.64,0,0,0-1.58-1.13,14.26,14.26,0,0,0-3.57-.59h-.21a14.32,14.32,0,0,0,.28-1.48,16.25,16.25,0,0,0-.08-4.35,2.36,2.36,0,0,0,0-.28c-.34-2.3-1-4.58-1.41-6.88-.05-.29-.09-.58-.13-.87a19.85,19.85,0,0,1-.29-3.26c0-5.43,2.76-10.42,4.35-15.61a37.49,37.49,0,0,0,1.59-12.76c0-.32,0-.64-.07-1a37.23,37.23,0,0,0-2.63-11.36c-1.72-4.23-4.22-8.19-5.06-12.67-.06-.33-.11-.64-.16-1,0-.06,0-.11,0-.17-.33-2.58-.21-5.2-.44-7.79l0-.22c0-.5-.1-1-.19-1.51-1.51-8.95-9.49-15.84-18.26-18.21-6.77-1.84-13.66-1.26-20.46,0-5.86,1.09-11.2-1.3-17-.54-2.29.3-4.68,1.05-6.15,2.83a31.21,31.21,0,0,0-2.05,3.44c-2.61,4.08-7.79,5.44-12.08,7.67-6.53,3.38-11.74,9.7-12.71,17-.91,6.75,1.75,13.45,2.15,20.25a36.69,36.69,0,0,1-.53,8.44c-1,5.73-3,11.37-4.77,16.94a19.88,19.88,0,0,0-1.33,7.12,19,19,0,0,0,1.1,4.84c.84,2.56,1.79,5.09,2.88,7.56a25.09,25.09,0,0,1-6.31,1.65c-2.22.25-4.57.16-6.49,1.29a7.85,7.85,0,0,0-2.26,2.15,11.86,11.86,0,0,0-2.05,8.92,2.75,2.75,0,0,0-1.28,2.37c0,.94.16,1.88.2,2.82a17.79,17.79,0,0,1-1,5.22,44.23,44.23,0,0,0-1.15,17.7c.4,2.94.71,5.86.94,8.79h0c.53,6.53.74,13.05,1,19.65.28,6.26-.24,12.59.8,18.78.35,2.07,1,4.26,2.62,5.56A10.2,10.2,0,0,1,543,637c.92,1,.95,2.42,1.25,3.71a8,8,0,0,0,8.24,5.87l0,0h0l-1.68,4.85H654.48a12.26,12.26,0,0,1,0-2.84l0,.06a5,5,0,0,1,.77,2.78H675A15.47,15.47,0,0,0,674,645.27Z" transform="translate(-16.24 -60.49)" fill="url(#e39136aa-3593-4907-8e63-1fd7210af8ba)"/><path d="M590.78,446.34c-2.28.3-4.65,1-6.11,2.81a32.48,32.48,0,0,0-2,3.42c-2.58,4.05-7.72,5.4-12,7.61-6.48,3.36-11.65,9.65-12.62,16.89-.89,6.71,1.74,13.36,2.14,20.12.52,8.62-2.61,17-5.26,25.21a19.64,19.64,0,0,0-1.32,7.07,18.71,18.71,0,0,0,1.09,4.82c2.43,7.37,5.73,14.55,10.64,20.57s11.54,10.82,19.1,12.6a55.44,55.44,0,0,0,10.53,1.12q8.12.3,16.24.29a47.18,47.18,0,0,0,8.89-.59c6.19-1.2,11.66-4.71,16.95-8.15,6.09-4,12.78-8.81,13.7-16,.66-5.2-1.94-10.3-1.94-15.54,0-5.39,2.74-10.35,4.32-15.51a37.49,37.49,0,0,0-1.1-24.92c-1.71-4.19-4.19-8.13-5-12.58-.65-3.49-.25-7.1-.83-10.59-1.49-8.9-9.42-15.74-18.13-18.1-6.72-1.82-13.55-1.25-20.31,0C601.89,448,596.58,445.58,590.78,446.34Z" transform="translate(-16.24 -60.49)" fill="#3f3d56"/><path d="M592.62,520.88a22,22,0,0,1-2.74,16.52,26.68,26.68,0,0,1-5.87,6.13,37.45,37.45,0,0,1-11.58,6.4,23.34,23.34,0,0,0,8.91,4.33,42,42,0,0,0,7.59.92,215.44,215.44,0,0,0,38.42-1.39c4.26-.54,8.7-1.28,12.14-3.84a1.69,1.69,0,0,0,.68-.8c.25-.85-.76-1.49-1.59-1.77-4.11-1.4-8.53-2.21-12.08-4.71-5.44-3.81-7.71-10.82-8.2-17.45s.47-13.31-.18-19.93q-13.17-.19-26.33.77c-1,.07-5.41-.18-5.93.67s1.87,3.28,2.47,4.2A29.27,29.27,0,0,1,592.62,520.88Z" transform="translate(-16.24 -60.49)" fill="#fbbebe"/><circle cx="588.54" cy="430.6" r="30" opacity="0.1"/><circle cx="588.54" cy="429.54" r="30" fill="#fbbebe"/><path d="M646.89,600.45c-2.45,10-4,20.44-2.95,30.73.66,6.54,2.89,13.64,3.17,20.33H572.77c0-3.48,0-7.07-.06-10.66,0-.71,0-1.41,0-2.13h0c0-.92,0-1.84,0-2.77h0c0-2.8,0-5.57,0-8.27,0-4.87,0-9.74-.51-14.58a106,106,0,0,0-5.95-25.22c-.21-.6-.42-1.2-.64-1.79h0a1.46,1.46,0,0,1-.07-.19c-.23-.6-.45-1.2-.68-1.81-3.62-9.61-7.75-19.6-5.77-29.6a24.71,24.71,0,0,1,2-5.85,25.86,25.86,0,0,1,7-8.9l.29-.24a25.22,25.22,0,0,1,3.26-2.16,19.87,19.87,0,0,1,1.79-.89l.23-.1a11.88,11.88,0,0,1,4.38-1c3.77-.06,7.16,2.09,10.31,4.19l.25.17.42.27.48.32c1.24.82,2.5,1.64,3.77,2.42l.61.37a49.94,49.94,0,0,0,11.31,5.33c6,1.82,12.78,1.89,18.27-1.14a19.84,19.84,0,0,0,3-2.09,22.21,22.21,0,0,0,1.69-1.53,39.36,39.36,0,0,0,3.33-3.74c1.45,2.84,4.62,4,7.25,5.84a21.24,21.24,0,0,1,6.71,8c.44.86.83,1.74,1.18,2.63a57.67,57.67,0,0,1,3,13.07,66.7,66.7,0,0,1,.87,13.23C650.09,588.71,648.33,594.57,646.89,600.45Z" transform="translate(-16.24 -60.49)" fill="#3f3d56"/><rect x="569.16" y="491.07" width="16.93" height="51.34" rx="2.9" transform="translate(1242.43 826.21) rotate(166.7)" fill="#ff9f00"/><rect x="568.94" y="491.27" width="15.67" height="51.34" rx="2.9" transform="translate(1240.8 826.81) rotate(166.7)" fill="#ededf4"/><ellipse cx="572.44" cy="502.76" rx="1.5" ry="3.64" transform="translate(-116.57 84.73) rotate(-13.3)" fill="#ff9f00"/><path d="M602.31,651.51H551.6l1.72-5h0s0,0,0,0h-.06a7.93,7.93,0,0,1-8.18-5.83c-.3-1.28-.33-2.74-1.24-3.69a9.32,9.32,0,0,0-1.17-.9c-1.64-1.29-2.25-3.47-2.59-5.53-1-6.15-.52-12.43-.79-18.66-.3-7-.52-13.87-1.13-20.78-.22-2.49-.49-5-.83-7.48a44.06,44.06,0,0,1,1.15-17.59,17.52,17.52,0,0,0,1-5.18c0-.94-.25-1.87-.2-2.8a2.75,2.75,0,0,1,1.27-2.36,11.79,11.79,0,0,1,2-8.86,7.74,7.74,0,0,1,2.24-2.14c1.9-1.12,4.25-1,6.44-1.28a24.59,24.59,0,0,0,6.26-1.64h0c.71-.28,1.4-.58,2.1-.9h0c2.44-1.12,4.82-2.48,7.21-3.77l.5-.27c1.8-1,3.61-1.89,5.46-2.66l.23-.09a24.22,24.22,0,0,1,6.85-1.79,38.25,38.25,0,0,1,6.93.17,4.29,4.29,0,0,1,1.84.58,6.21,6.21,0,0,1,2.05,2.17h0c.07.12.14.23.21.36a23.93,23.93,0,0,1,1.92,5.66c.12.49.23,1,.33,1.46a.06.06,0,0,0,0,0c.24,1.18.45,2.36.62,3.55,0,0,0,0,0,0v0a82.86,82.86,0,0,1,.82,9.06c.19,4.37.14,8.78.12,13.16,0,.74,0,1.47,0,2.2a24.06,24.06,0,0,0,.88,6.37c1.55,5.66,1.71,11.59,2,17.44a395.61,395.61,0,0,0,4.13,40.93c.39,2.55.8,5.09.94,7.66A45.52,45.52,0,0,1,602.31,651.51Z" transform="translate(-16.24 -60.49)" fill="#f86d70"/><path d="M591.36,578.16a29.52,29.52,0,0,1,3,4c.41.67.74,1.65.14,2.16a1.78,1.78,0,0,1-1.09.3l-7.16.3a8,8,0,0,1-3.2-.29,8.19,8.19,0,0,1-3.33-3l-3.17-4.14a9.47,9.47,0,0,1-2-3.57A3.2,3.2,0,0,1,576,570.4a4.73,4.73,0,0,1,3.49.24c2.14.73,4.7,1.22,6.61,2.46A28,28,0,0,1,591.36,578.16Z" transform="translate(-16.24 -60.49)" fill="#f86d70"/><path d="M591.36,578.16a29.52,29.52,0,0,1,3,4c.41.67.74,1.65.14,2.16a1.78,1.78,0,0,1-1.09.3l-7.16.3a8,8,0,0,1-3.2-.29,8.19,8.19,0,0,1-3.33-3l-3.17-4.14a9.47,9.47,0,0,1-2-3.57A3.2,3.2,0,0,1,576,570.4a4.73,4.73,0,0,1,3.49.24c2.14.73,4.7,1.22,6.61,2.46A28,28,0,0,1,591.36,578.16Z" transform="translate(-16.24 -60.49)" opacity="0.1"/><path d="M587.3,578.64a101.61,101.61,0,0,1,3.58-13.74,31.89,31.89,0,0,0,1.8-6.68c.19-1.79,0-3.6.18-5.4.14-1.55.52-3.07.75-4.61a23.1,23.1,0,0,0-.56-9.36c-.65-2.43,0-5.37-1.58-7.34-.63-.8-1.48-1.42-2.13-2.2a3.05,3.05,0,0,1-.81-2.81,17.63,17.63,0,0,0,6.75.22,4.46,4.46,0,0,0,1.88-.66,1.79,1.79,0,0,0,.8-1.72,2.54,2.54,0,0,0-1.29-1.47,15.8,15.8,0,0,0-13.43-1.49.79.79,0,0,1,.34-1,2.88,2.88,0,0,1,1-.34,7,7,0,0,0,5-4.33,1.38,1.38,0,0,0,.1-1c-.25-.75-1.31-.71-2.08-.52l-4.13,1a9.25,9.25,0,0,0-2.31.78,9.51,9.51,0,0,0-2.37,2.06c-2.17,2.34-4.38,4.76-5.58,7.72-.53,1.34-.85,2.76-1.41,4.09a6.23,6.23,0,0,1-2.72,3.25,3.54,3.54,0,0,0-1.77,3.73,10.32,10.32,0,0,0,1.89,4.09,50.2,50.2,0,0,0,5.19,6.77,18.7,18.7,0,0,1,3.56,4.35c.59,1.2.84,2.53,1.36,3.76a8.08,8.08,0,0,1,.65,1.78,4.64,4.64,0,0,1,0,1.34c-.87,6.74-5.87,12.24-7.74,18.78a2.21,2.21,0,0,0-.12,1,2.35,2.35,0,0,0,1.09,1.45c3.63,2.75,8.07,4.16,12.42,5.53A46.24,46.24,0,0,0,587.3,578.64Z" transform="translate(-16.24 -60.49)" opacity="0.1"/><path d="M586.69,578.33a102,102,0,0,1,3.58-13.74,31,31,0,0,0,1.8-6.67c.19-1.79,0-3.61.18-5.4.14-1.55.52-3.07.75-4.61a23.14,23.14,0,0,0-.55-9.37c-.66-2.42,0-5.37-1.59-7.34-.63-.8-1.47-1.41-2.13-2.19a3,3,0,0,1-.8-2.81,17.58,17.58,0,0,0,6.74.21,4.44,4.44,0,0,0,1.88-.65,1.8,1.8,0,0,0,.8-1.72,2.48,2.48,0,0,0-1.29-1.47,15.79,15.79,0,0,0-13.42-1.5.76.76,0,0,1,.33-1,3,3,0,0,1,1-.34,7,7,0,0,0,5-4.34,1.42,1.42,0,0,0,.09-1c-.25-.74-1.31-.7-2.08-.51l-4.13,1a10.31,10.31,0,0,0-2.31.78,9.72,9.72,0,0,0-2.37,2.06c-2.17,2.35-4.38,4.76-5.57,7.72-.54,1.34-.86,2.76-1.42,4.09a6.16,6.16,0,0,1-2.72,3.25,3.56,3.56,0,0,0-1.77,3.74,10.32,10.32,0,0,0,1.89,4.09,50.08,50.08,0,0,0,5.2,6.77,18.91,18.91,0,0,1,3.55,4.35c.59,1.2.84,2.53,1.36,3.75a8.5,8.5,0,0,1,.66,1.78,4.7,4.7,0,0,1,0,1.35c-.87,6.74-5.86,12.23-7.73,18.77a2.26,2.26,0,0,0-.13,1,2.4,2.4,0,0,0,1.09,1.45c3.63,2.74,8.07,4.16,12.42,5.53A46.36,46.36,0,0,0,586.69,578.33Z" transform="translate(-16.24 -60.49)" fill="#fbbebe"/><path d="M589.44,576.63a.78.78,0,0,1,.35.32.84.84,0,0,1,0,.54,45,45,0,0,1-3.92,8.62q-4.83-2.65-9.45-5.69a5.16,5.16,0,0,1-1.89-1.79C570,569.88,586.43,574.89,589.44,576.63Z" transform="translate(-16.24 -60.49)" fill="#3f3d56"/><path d="M571.34,580.88c-1.06,1.42-2.29,2.7-3.34,4.13a64.17,64.17,0,0,0-4.62,8.32,56.31,56.31,0,0,1-7,10.36c-2.73,3.21-6,6.49-6.29,10.69a3.46,3.46,0,0,1-.38,1.73,6.91,6.91,0,0,1-1.24,1c-.4.37-.63,1.06-.23,1.43-1.57.16-2.21,2-2.51,3.59l-.69,3.55a12.22,12.22,0,0,0-.34,2.82,11.66,11.66,0,0,0,.92,3.74A60.73,60.73,0,0,0,552,644.65c1.25,1.85,2.69,3.71,4.74,4.59a13.12,13.12,0,0,0,6,.57c2.88-.18,6.24-.65,7.68-3.16.91-1.59.77-3.65,1.77-5.2a19.69,19.69,0,0,1,1.9-2.09,13.52,13.52,0,0,0,2.35-4.63,172,172,0,0,0,6.32-23.08,37.35,37.35,0,0,1,2.09-7.74,43,43,0,0,1,3.85-6.35c2.57-3.89,3-7.25,4.73-11.56-3.92-.91-5.73-3.51-9.06-5.71-3.15-2.08-7.8-6.5-11.12-8.1C572.22,574.92,573.14,578.45,571.34,580.88Z" transform="translate(-16.24 -60.49)" opacity="0.1"/><path d="M569,578.75c-1.06,1.42-2.29,2.71-3.34,4.13a63.06,63.06,0,0,0-4.61,8.33,57.68,57.68,0,0,1-7,10.36c-2.74,3.21-6,6.49-6.3,10.69a3.46,3.46,0,0,1-.38,1.73c-.31.45-.84.67-1.24,1s-.63,1.06-.23,1.43c-1.56.16-2.21,2-2.51,3.58l-.69,3.55a13,13,0,0,0-.34,2.83,11.66,11.66,0,0,0,.92,3.74,60.73,60.73,0,0,0,6.41,12.37c1.25,1.85,2.69,3.7,4.74,4.59a13.26,13.26,0,0,0,6,.57c2.88-.19,6.25-.65,7.68-3.16.92-1.6.77-3.65,1.77-5.2a18.86,18.86,0,0,1,1.9-2.1,13.47,13.47,0,0,0,2.35-4.62,173.52,173.52,0,0,0,6.33-23.08,36.55,36.55,0,0,1,2.08-7.74,43.06,43.06,0,0,1,3.85-6.36c2.57-3.88,2.42-6.19,4.2-10.5-3.92-.9-5.19-4.56-8.53-6.77-3.15-2.07-7.8-6.5-11.12-8.09C569.83,572.8,570.75,576.33,569,578.75Z" transform="translate(-16.24 -60.49)" opacity="0.1"/><path d="M570.28,579.81c-1.06,1.42-2.29,2.71-3.34,4.13a64.29,64.29,0,0,0-4.62,8.33,56.31,56.31,0,0,1-7,10.36c-2.73,3.21-6,6.49-6.29,10.69a3.46,3.46,0,0,1-.38,1.73,6.91,6.91,0,0,1-1.24,1c-.4.37-.64,1.06-.24,1.43-1.56.16-2.21,2-2.51,3.59l-.69,3.55a12.78,12.78,0,0,0-.33,2.82,11.66,11.66,0,0,0,.92,3.74A60.73,60.73,0,0,0,551,643.59c1.25,1.85,2.69,3.71,4.74,4.59a13.07,13.07,0,0,0,6,.57c2.89-.19,6.25-.65,7.69-3.16.91-1.6.77-3.65,1.77-5.2a19.69,19.69,0,0,1,1.9-2.09,13.79,13.79,0,0,0,2.35-4.63,172,172,0,0,0,6.32-23.08,37.33,37.33,0,0,1,2.08-7.74,43.37,43.37,0,0,1,3.86-6.35,73.12,73.12,0,0,0,6.54-12.33,33.77,33.77,0,0,1-10.87-4.94c-3.15-2.08-7.8-6.51-11.12-8.1C571.16,573.86,572.08,577.39,570.28,579.81Z" transform="translate(-16.24 -60.49)" fill="#f86d70"/><circle cx="564.12" cy="522.46" r="2.12" fill="#3f3d56"/><circle cx="557.48" cy="532.81" r="2.12" fill="#3f3d56"/><circle cx="550.58" cy="543.43" r="2.12" fill="#3f3d56"/><path d="M674.89,651.51H655.35a5,5,0,0,0-.84-3c0,.06,0,.12,0,.18a11.23,11.23,0,0,0,.06,2.78H630.05a42.32,42.32,0,0,1,.9-8.4,87.12,87.12,0,0,0,1.37-13.48c.12-5.58-.29-11.16-.32-16.74a120.36,120.36,0,0,1,1.06-16.54c.67-5,1.66-10.15.84-15.17-.92-5.61-1.71-11.29-2.42-16.93,0-.2-.05-.4-.08-.61a16.19,16.19,0,0,0-.63-3.08c-.29-.85-.7-1.65-1.07-2.47a34.67,34.67,0,0,1-1.68-4.38,40.4,40.4,0,0,1-1.61-8.53c-.14-1.65-2.41-3.13-2.48-4.79h0a.34.34,0,0,1,0-.1c3.25-.66,9-1.47,12.15-.34s5.45,3.89,8.59,4.93a22.33,22.33,0,0,0,5.78.71,14.33,14.33,0,0,1,3.75.6,2.54,2.54,0,0,1,1.57,1.12.7.7,0,0,1,.08.23,2.1,2.1,0,0,1-1.26,2.32,4.92,4.92,0,0,1-2.38.29h0l-.69-.07q4.57,3.34,8.9,7l.94.8A10.36,10.36,0,0,1,664.1,561a10.82,10.82,0,0,1,.75,4.7c0,1.86,0,3.73,0,5.59,0,3.59,1.81,6.89,2.44,10.43.79,4.46,1.18,9,1.55,13.49.21,2.63.42,5.26.52,7.89.21,5.06,1.09,10.1,1.17,15.17,0,1.56,0,3.12.14,4.68s.4,3,.67,4.53c.59,3.26,1.18,6.53,1.78,9.79a14,14,0,0,1,.29,2.58v0a14,14,0,0,0-.1,3.71,10.55,10.55,0,0,0,.6,1.53A15.6,15.6,0,0,1,674.89,651.51Z" transform="translate(-16.24 -60.49)" fill="#f86d70"/><ellipse cx="589.74" cy="406.04" rx="28.67" ry="11.15" fill="#3f3d56"/><path d="M634.26,484.48a8.52,8.52,0,0,0-.7-2.93s0,0,0,0a6.66,6.66,0,0,0-.84-1.4c-3.6-4.64-12.11-2.94-12.11-2.94a15,15,0,0,0-2.05-.65,9.56,9.56,0,0,0-7.35.94,10.4,10.4,0,0,0-3.83,4.12,16.29,16.29,0,0,0-.6,1.93,15.28,15.28,0,0,0-.32,1.67c-1,7.58,4.66,12.19,8.26,14.32a10.24,10.24,0,0,0,9,.67,16.63,16.63,0,0,0,10.41-12.82,13.94,13.94,0,0,0,.12-1.65h0A8.28,8.28,0,0,0,634.26,484.48Zm-3.76,3.09a13.86,13.86,0,0,1-8.45,10.68,8.19,8.19,0,0,1-7.36-.56c-3.37-2-8.93-6.8-6-14.92,0,0,3-6.79,10.75-3.68C619.48,479.09,631.88,476.55,630.5,487.57Z" transform="translate(-16.24 -60.49)" fill="#f86d70"/><path d="M619.48,479.1s12.4-2.55,11,8.47a13.86,13.86,0,0,1-8.45,10.68,8.08,8.08,0,0,1-3.14.63h0a8.2,8.2,0,0,1-4.22-1.18c-3.37-2-8.93-6.81-6-14.93C608.73,482.77,611.76,476,619.48,479.1Z" transform="translate(-16.24 -60.49)" fill="#3f3d56"/><path d="M619.48,479.1s12.4-2.55,11,8.47a13.86,13.86,0,0,1-8.45,10.68,8.08,8.08,0,0,1-3.14.63h0a8.2,8.2,0,0,1-4.22-1.18c-3.37-2-8.93-6.81-6-14.93C608.73,482.77,611.76,476,619.48,479.1Z" transform="translate(-16.24 -60.49)" opacity="0.1" fill="url(#ff6ab51b-9cbe-465e-bb4b-38096aabc913)"/><path d="M603.11,485.2a15.28,15.28,0,0,0-.32-1.67,16.29,16.29,0,0,0-.6-1.93,10.4,10.4,0,0,0-4.3-4.38,9.25,9.25,0,0,0-5.63-.91,13.79,13.79,0,0,0-3.3.88s-8.51-1.7-12.11,2.94a6.66,6.66,0,0,0-.84,1.4s0,0,0,0a8.52,8.52,0,0,0-.7,2.93,8.28,8.28,0,0,0,0,1.23h0a13.32,13.32,0,0,0,1,4.95l0,.07a16.45,16.45,0,0,0,3.65,5.59A16.11,16.11,0,0,0,581.9,498a17.81,17.81,0,0,0,3.9,2.19,10.22,10.22,0,0,0,9-.67C598.45,497.39,604.11,492.78,603.11,485.2Zm-8.24,12.49a8.19,8.19,0,0,1-7.36.56,13.88,13.88,0,0,1-8.46-10.68c-1.37-11,11-8.48,11-8.48,7.72-3.11,10.75,3.68,10.75,3.68C603.8,490.89,598.24,495.65,594.87,497.69Z" transform="translate(-16.24 -60.49)" fill="#f86d70"/><path d="M590.08,479.1s-12.4-2.55-11,8.47a13.88,13.88,0,0,0,8.46,10.68,8.08,8.08,0,0,0,3.14.63h0a8.2,8.2,0,0,0,4.22-1.18c3.37-2,8.93-6.81,6-14.93C600.83,482.77,597.8,476,590.08,479.1Z" transform="translate(-16.24 -60.49)" fill="#3f3d56"/><path d="M590.08,479.1s-12.4-2.55-11,8.47a13.88,13.88,0,0,0,8.46,10.68,8.08,8.08,0,0,0,3.14.63h0a8.2,8.2,0,0,0,4.22-1.18c3.37-2,8.93-6.81,6-14.93C600.83,482.77,597.8,476,590.08,479.1Z" transform="translate(-16.24 -60.49)" opacity="0.1" fill="url(#f27ccdd2-fde5-49a7-9026-8eca3e6a77d9)"/><rect x="585.65" y="423.05" width="5.82" height="1.66" fill="#f86d70"/></g><path d="M370.54,738.82c-2.35-4.56-7.55-6.82-12.4-8.6s-10-3.49-15.1-5c6.2-5.56,11.11-12.45,15.57-19.48,2.55-4,5-8.19,6.22-12.77s1.1-9.71-1.32-13.81c-2.87-4.87-8.55-7.59-14.21-8.27s-11.36.37-16.94,1.48q-6,1.2-12,2.5a75.28,75.28,0,0,0,6.83-3.75c8.24-5.11,15.48-11.65,22.35-18.47,2.17-2.16,4.47-4.7,4.41-7.75-.06-2.82-2.25-5.29-4.89-6.35a14.75,14.75,0,0,0-8.41-.33,28.32,28.32,0,0,0-18.25,12.91c-1.38,2.3-2.46,4.85-4.37,6.75-2.27,2.25-5.86,3.14-8.38.84a8.5,8.5,0,0,1-1.86-3.4l.13-.17c5-7.27,5.37-17.13,2.07-25.32-2.51-6.25-6.85-11.52-11.21-16.74a53.39,53.39,0,0,1,12.65-6.58,12.39,12.39,0,0,0,3.49-1.63c2.13-1.63,2.78-4.55,2.82-7.22s-.38-5.3.18-7.87a27.76,27.76,0,0,0,8.3,1.27,27.3,27.3,0,0,0,25-16.2c4.95-1.28,9.78-3.36,13.35-7,4.4-4.45,7.11-13.09,2.41-18.3-1.55-1.71-3.9-2.46-5.8-3.69-3-2-5-4.45-7.1-7.32-9.29-12.51-22.6-14.82-37.59-13.15-6.74.75-13.5,2-19.7,4.74a80.4,80.4,0,0,0-13.46,8.1c-.68.48-1.37,1-2,1.47-1.21-3.72-2.83-7.38-3.79-10.32a8.38,8.38,0,0,1-.61-3.81c.32-2.19,2.2-3.78,4-5.16l25.41-19.92a62,62,0,0,1,8.53-5.95c8.76-4.74,19.84-5.31,27.18-12a20.52,20.52,0,0,0,6.62-15.31c-.08-4.13-2-8.76-6-9.9-4.2-1.2-8.3,1.89-11.54,4.78-10.63,9.47-21.23,19.06-33.09,27-11.22,7.47-23.58,13.44-33.56,22.46a22.39,22.39,0,0,0-4.64,5.37,26.7,26.7,0,0,0-2.51,7.74l-2.07,9.74c-1.67,7.84-3,16.93,1.75,23.22a11.7,11.7,0,0,0-.74,1.85c-.72,2.43.6,5,0,7.12-.66,2.38-4.29,5-5.91,6.89-2.24,2.6-4.4,5.29-6.46,8a197.57,197.57,0,0,0-20.39,34.53c-8.59,18.26-15,37.42-21.46,56.53-1.13,3.38-2.28,6.83-2.31,10.4a16.85,16.85,0,0,0,2.72,9.12c-1.72,10.13-6.06,19.81-6.21,30.18l-1.57.71c-.68,9.63,4,19.23,8,28,2.31,5,5.09,10.39,10.23,12.44,2.63,1,5.54,1.06,8.37,1,3.29,0,6.32.06,9.31.13l-.38,0c-3.6.6-7.6,2-9,5.33a11.88,11.88,0,0,0-.41,5.6q1.74,19.71,3.47,39.42c.25,2.91.61,6.05,2.6,8.21,1.82,2,4.63,2.68,7.3,3.1a52.76,52.76,0,0,0,15.11.13,12.3,12.3,0,0,0,5.91-2c1.67-1.27,2.71-3.57,1.89-5.5-1.16-2.75-5.06-3.14-7-5.41-2.54-2.93-.85-7.41.92-10.85.27-.53.59-1.09.92-1.66a36.61,36.61,0,0,0,6.24,7.14c1.95,1.71,4.74,2.92,7,1.72q8.31-4.33,16.72-8.5l1.3.18A206.55,206.55,0,0,0,316,803.31a14.57,14.57,0,0,0,6.09-1.08c1.87-.92,3.37-2.88,3.08-4.92-.34-2.47-2.95-3.92-5.31-4.79a48.9,48.9,0,0,0-13.84-2.87q9.19-4.38,18.43-8.72c6.15-2.9,12.36-5.82,19-7.48,8.51-2.13,18.48-2.65,24-9.43,3.31-4.1,4.12-9.6,4.47-14.84C372.11,745.66,372.16,742,370.54,738.82Zm-86.41-55.24c-3,.79-6.39,1.62-9.82,2.64-.32-2.62-.82-5.23-1.14-7.84a4.07,4.07,0,0,1,.21-2.4,4.37,4.37,0,0,1,2.05-1.6l11.44-5.6a7.67,7.67,0,0,0-2.38-5.6,16.63,16.63,0,0,0,3.43.88,37.24,37.24,0,0,0,6.42,13.87,6.43,6.43,0,0,0,2.66,2.25l.18.05Q290.64,681.85,284.13,683.58Z" transform="translate(-16.24 -60.49)" fill="url(#b913257d-9419-4869-9ba2-4e2c570edd91)"/><path d="M295.06,572.44c-5.68,1.67-12,.29-17.05-2.73a10.2,10.2,0,0,0-3.31-1.54c-2.07-.37-4.12.81-5.62,2.29-4.87,4.84-5.43,12.84-2.91,19.22s7.56,11.43,12.86,15.8a116.71,116.71,0,0,0,13.53,9.62,25.08,25.08,0,0,1,13.87-13.49c5.56-2.15,9.63-7.92,12.82-13,2.36-3.73,4.47-3.56,2.34-7.43s-5.45-6.92-8.43-10.19a32,32,0,0,1-4.54-6.06c-1.43-2.55-1.11-4.21-3.3-2.19-1.45,1.35-2.08,4.24-3.7,5.82A15.91,15.91,0,0,1,295.06,572.44Z" transform="translate(-16.24 -60.49)" fill="#fabdbd"/><path d="M277.63,532.87a8.47,8.47,0,0,1-.59-3.77c.31-2.16,2.15-3.73,3.86-5.09l24.82-19.67a61.62,61.62,0,0,1,8.33-5.87c8.56-4.68,19.38-5.24,26.55-11.86a20.32,20.32,0,0,0,6.46-15.11c-.08-4.07-2-8.64-5.87-9.78-4.1-1.18-8.1,1.88-11.27,4.73-10.38,9.34-20.73,18.81-32.32,26.61-11,7.38-23,13.27-32.77,22.18a22,22,0,0,0-4.53,5.29,26.63,26.63,0,0,0-2.45,7.65l-2,9.61c-1.71,8.1-3.09,17.55,2.37,23.77a8.71,8.71,0,0,0,6.61,3.27,12.74,12.74,0,0,0,5.11-1.74C274,561,281.31,559,282.55,554,284.11,547.61,279.54,538.75,277.63,532.87Z" transform="translate(-16.24 -60.49)" fill="#fabdbd"/><path d="M317.22,659.66c1.86-1.88,2.92-4.39,4.27-6.66a27.65,27.65,0,0,1,17.82-12.75,14.16,14.16,0,0,1,8.21.34,7.33,7.33,0,0,1,4.78,6.26c.05,3-2.19,5.52-4.32,7.65-6.7,6.73-13.77,13.19-21.81,18.23S309,681.37,299.52,682a6.77,6.77,0,0,1-2.84-.26,6.39,6.39,0,0,1-2.6-2.22c-5-6.46-6.78-14.82-8.14-22.89.49,2.91,16.83-3.87,18.68-3,2.7,1.27,2.44,5.09,4.41,6.91C311.49,662.76,315,661.89,317.22,659.66Z" transform="translate(-16.24 -60.49)" fill="#fabdbd"/><path d="M198.2,723.42a5.35,5.35,0,0,0,.58,2.94c1.11,1.75,3.63,1.77,5.68,1.47a107.09,107.09,0,0,0,14-3.37l41.65-12a4,4,0,0,0,1.79-.86,3.87,3.87,0,0,0,.82-1.83,49.09,49.09,0,0,0,.92-18.35,4.74,4.74,0,0,0-.84-2.45,4.94,4.94,0,0,0-3.45-1.3,178.82,178.82,0,0,0-19.64-.9,98.77,98.77,0,0,1-12.76-.27c-5.48-.66-11.78-3.8-17.27-3.32-4.77.41-4.58,4.13-5.07,8.07C203.24,702.11,198.31,712.36,198.2,723.42Z" transform="translate(-16.24 -60.49)" fill="#fabdbd"/><path d="M331.21,674c5.45-1.1,11-2.15,16.55-1.47s11.07,3.36,13.87,8.17c2.36,4.05,2.49,9.1,1.29,13.63s-3.59,8.64-6.07,12.61c-5,7.9-10.49,15.62-17.79,21.42-3.54,2.82-7.46,5.15-10.87,8.13-7.27,6.35-11.77,15.22-16.09,23.85-4.07,8.13-8.18,16.39-9.86,25.32a2.6,2.6,0,0,1-.88,1.81,2.52,2.52,0,0,1-1.8.12l-20-3.69a4.16,4.16,0,0,1-2.46-1c-.85-1-.63-2.44-.34-3.7a139.83,139.83,0,0,1,23.83-51.56,45.8,45.8,0,0,1-40.22,11.65,16,16,0,0,1-7.63-3.3c-4.46-4-4.25-11-3.26-16.89a122.19,122.19,0,0,1,3.7-15.56C257,691.31,273.14,688,284.11,685Q307.48,678.76,331.21,674Z" transform="translate(-16.24 -60.49)" fill="#3f3d56"/><path d="M316.43,717.11c-2.77,1.3-5.6,2.71-7.61,5,3.6-4.14,13.86-6.07,18.9-8,6.23-2.33,13-4.69,18.32-8.82A218.71,218.71,0,0,0,316.43,717.11Z" transform="translate(-16.24 -60.49)" opacity="0.1"/><path d="M251.7,802.64c-1.74,3.39-3.38,7.81-.9,10.71,1.92,2.24,5.73,2.62,6.87,5.34.79,1.9-.22,4.17-1.85,5.43a12,12,0,0,1-5.77,2,51.05,51.05,0,0,1-14.76-.13c-2.61-.41-5.35-1.11-7.13-3.06-1.95-2.13-2.29-5.23-2.54-8.1q-1.69-19.45-3.38-38.91a11.76,11.76,0,0,1,.39-5.54c1.35-3.3,5.25-4.67,8.77-5.26a47.83,47.83,0,0,1,11.95-.48c2.69.23,5.53.76,7.52,2.58,2.24,2,2.95,5.22,3.53,8.2.91,4.62,3.46,11,2.92,15.72C256.88,794.92,253.4,799.23,251.7,802.64Z" transform="translate(-16.24 -60.49)" fill="#ff9f00"/><path d="M296.5,790.06A47.13,47.13,0,0,1,319,792.59c2.31.86,4.85,2.28,5.19,4.72.28,2-1.19,4-3,4.86a14.23,14.23,0,0,1-6,1.07,200.49,200.49,0,0,1-32.11-1.71c-2.74-.37-5.58-.84-7.82-2.46s-3.64-4.73-2.45-7.22c1.28-2.66,4.78-3.5,6.46-5.92,1.22-1.75,1.52-4.31,3.43-5.23,1.35-.65,3-.16,4.36.33,2,.71,6.89,1.42,8.3,3.1C296,784.84,296.55,790.05,296.5,790.06Z" transform="translate(-16.24 -60.49)" fill="#ff9f00"/><circle cx="308.98" cy="506.59" r="26.64" fill="#fabdbd"/><path d="M262,555.33c4.29-3.13,9.69-4.2,14.91-5.19,1.79-.34,3.77-.65,5.35.27a7.71,7.71,0,0,1,2.57,3.17A29,29,0,0,1,288.4,562c.56,3,0,6.38-2.09,8.57-1.58,1.64-3.85,2.45-5.47,4-2.24,2.21-2.89,5.65-2.39,8.75a26.17,26.17,0,0,0,3.54,8.69,149.24,149.24,0,0,0,13.34,19.62c5.17,6.44,11,12.62,14,20.29,3.22,8.09,2.89,17.82-2,25s-14.74,11-22.88,7.94a7.62,7.62,0,0,1,2.33,5.52L275.62,676a4.29,4.29,0,0,0-2,1.58,4.06,4.06,0,0,0-.2,2.37c.55,4.54,1.67,9.07,1.36,13.64s-2.4,9.38-6.53,11.36c-3.81,1.83-8.3.86-12.44,0a155.94,155.94,0,0,0-29.39-3.07c-4.9,0-10,.12-14.5-1.78a17.25,17.25,0,0,1-10.29-15.62c0-3.52,1.15-6.92,2.26-10.26,6.27-18.87,12.56-37.79,21-55.81a195,195,0,0,1,19.92-34.09q3-4.06,6.31-7.93c1.57-1.85,5.12-4.45,5.76-6.8.58-2.11-.71-4.63,0-7A14.19,14.19,0,0,1,262,555.33Z" transform="translate(-16.24 -60.49)" fill="#ff9f00"/><path d="M196.67,724c11.68-5.39,23.38-10.79,35.53-15,9-3.09,18.93-5.49,27.72-2,2.62,1,5,2.58,7.56,3.82,8.51,4.13,18.24,4.73,27.65,5.78a260.29,260.29,0,0,1,61.26,14.5c4.74,1.75,9.82,4,12.11,8.49,1.58,3.1,1.54,6.75,1.31,10.22-.35,5.17-1.14,10.61-4.37,14.65-5.35,6.7-15.09,7.2-23.4,9.31-6.45,1.64-12.51,4.52-18.52,7.38-19.45,9.27-38.9,18.54-58,28.6-2.25,1.19-5,0-6.87-1.69-5.84-5.16-9.74-12.26-12-19.72s-2.91-15.31-3.05-23.09c-7.46,0-13.53-.34-21-.32-2.76,0-5.61,0-8.17-1-5-2-7.74-7.36-10-12.28C200.55,742.94,196,733.46,196.67,724Z" transform="translate(-16.24 -60.49)" fill="#3f3d56"/><path d="M332.38,751.71c-5.27-2.56-11.36-2.63-17.22-2.57a56.7,56.7,0,0,0-10.66.8C299,751,294,753.65,288.89,755.8a99.37,99.37,0,0,1-39.32,7.72" transform="translate(-16.24 -60.49)" opacity="0.1"/><path d="M362.67,570.84c-3.8,3.87-9.06,6-14.35,7.2s-10.73,1.69-16,2.86c-6.53,1.44-13.69,4.9-15.16,11.43-.58,2.57-.16,5.25-.2,7.89s-.67,5.51-2.75,7.13a12.11,12.11,0,0,1-3.41,1.6c-21.33,7.73-36.64,29.73-36.46,52.42a25.7,25.7,0,0,1-12.52-18.5c0,7.06-6,14.29-2.65,20.5a32.34,32.34,0,0,1-7.81-47.15c2.69-3.42,6-6.25,8.9-9.52A44.2,44.2,0,0,0,270.73,573c-.58-5.14-2.08-10.34-1-15.38,1.57-7,7.72-11.88,13.57-16a77.72,77.72,0,0,1,13.14-8c6.06-2.7,12.66-4,19.24-4.69,14.64-1.65,27.64.63,36.71,13,2.08,2.84,4,5.29,6.94,7.23,1.85,1.21,4.15,2,5.66,3.64C369.62,557.91,367,566.45,362.67,570.84Z" transform="translate(-16.24 -60.49)" fill="#3f3d56"/><ellipse cx="141.4" cy="738.68" rx="26.08" ry="5.01" fill="#ff9f00"/><ellipse cx="140.97" cy="736.55" rx="3.04" ry="3.97" fill="#3f3d56"/><ellipse cx="140.97" cy="731.69" rx="3.04" ry="3.97" fill="#3f3d56"/><ellipse cx="140.97" cy="726.83" rx="3.04" ry="3.97" fill="#3f3d56"/><ellipse cx="140.97" cy="721.98" rx="3.04" ry="3.97" fill="#3f3d56"/><ellipse cx="140.97" cy="717.12" rx="3.04" ry="3.97" fill="#3f3d56"/><ellipse cx="140.97" cy="712.26" rx="3.04" ry="3.97" fill="#3f3d56"/><ellipse cx="140.97" cy="707.4" rx="3.04" ry="3.97" fill="#3f3d56"/><path d="M168.57,734.64A13.47,13.47,0,0,0,169.7,733l-8-1.31,8.62.06a14.59,14.59,0,0,0,.28-11.52l-11.57,6,10.67-7.85a14.54,14.54,0,1,0-24,16.27,14.83,14.83,0,0,0-1.66,2.66l10.36,5.38-11-3.71a14.55,14.55,0,0,0,2.34,13.66,14.54,14.54,0,1,0,22.86,0,14.56,14.56,0,0,0,0-18Z" transform="translate(-16.24 -60.49)" fill="#ff9f00"/><path d="M142.6,743.64a14.49,14.49,0,0,0,3.11,9,14.54,14.54,0,1,0,22.86,0C170.52,750.15,142.6,742,142.6,743.64Z" transform="translate(-16.24 -60.49)" opacity="0.1"/></svg>