<svg id="bc533fab-02ef-422d-9322-6d24acb0347b" data-name="Layer 1" xmlns="http://www.w3.org/2000/svg" width="855.33185" height="676.00569" viewBox="0 0 855.33185 676.00569"><title>tree_swing</title><path d="M769.66593,696.8505h-2V478.00284a5.97951,5.97951,0,0,0-2.2129-4.65332l1.26368-1.55078a7.9729,7.9729,0,0,1,2.94922,6.2041Z" transform="translate(-172.33407 -111.99716)" fill="#3f3d56"/><path d="M515.11047,787.003S566.52693,649.89246,538.182,565.51673s-50.75727-81.0798-50.75727-81.0798-38.23275-9.88778-85.6941,19.11638-59.98587,37.57356-87.01247,25.70823-32.30008-30.32253-98.21862-28.345c0,0,34.93683-19.11637,69.21447-1.97755s57.34913,26.36741,92.286,0S461.05727,438.294,507.85943,458.7287c0,0-34.27764-33.61845-45.48379-33.61845s-63.941-5.27349-81.0798-23.07149c0,0-24.38986-17.13882-67.8961,25.049s-32.95926,42.18787-71.8512,38.89194-69.21447-22.4123-69.21447-22.4123,45.4838,18.45719,73.16958,9.22859,51.41646-44.16542,75.80632-56.03075,38.89193-27.68579,71.8512-10.547c0,0-13.84289-56.68994-40.2103-52.07564s-84.37573.65918-123.26767-26.36742c0,0-30.98171-.65918-44.8246,5.93267,0,0,36.25519-21.09393,67.2369-5.93267S365.47539,320.959,365.47539,320.959s-7.251-96.24107-21.09393-102.83292-5.27349-23.73067-30.98172-27.0266c0,0,31.6409-3.95511,37.57357,17.798s46.80216,139.08811,46.80216,139.08811,25.04905,50.09809,52.73483,38.23275-10.547-78.44306-10.547-78.44306L392.502,286.02213s35.596-1.31837,57.34913,19.11638,23.07148,86.35328,23.07148,86.35328,54.71239,7.91023,67.8961,37.57357c0,0,8.56941-26.36742-7.91023-42.18786-4.11991-3.95512-8.44581-10.83536-12.61722-18.931a167.20175,167.20175,0,0,1-16.34564-100.71419c2.45577-16.86506,3.96717-33.35526,1.27708-37.24095C499.29,221.422,474.241,168.68714,472.26342,154.84425s1.97755-42.847,1.97755-42.847.65919,35.596,8.56941,46.80216,30.32253,66.57772,30.32253,66.57772,11.86534-24.38986,25.70823-30.32253,34.93682-42.18786,27.0266-59.98587c0,0,9.88778,27.68579,1.97756,43.50624s-30.32253,34.27764-30.32253,34.27764-24.38986,82.39817-5.93267,116.67581,54.0532,72.51039,52.07565,97.55943v14.50208s39.55112-37.57356,36.91438-50.09809-5.93267-42.18786-30.98172-59.98587-41.52867-46.143-23.73067-87.01246,17.798-48.12054,17.798-48.12054L571.80041,247.1302s-6.59186,45.48379,11.86534,61.30424,42.847,44.8246,42.847,44.8246l-5.27348-94.92269s-1.31837-77.78388,74.48795-111.40233l48.12053-20.43475L694.40889,157.481s-59.32669,52.73483-55.37157,85.03491-.65919,53.394-.65919,53.394,36.91438-47.46134,80.42062-63.28179,70.53283-71.192,70.53283-71.192L826.246,132.43194l-30.32253,36.2552s-9.22859,42.847-61.30423,73.16957-85.6941,75.14714-87.67166,102.83292-3.95511,52.07565-3.95511,52.07565,97.55943-3.29593,119.31255-46.143,23.73067-127.882,44.82461-141.72485,60.645-30.98172,60.645-30.98172l-44.16542,36.2552s-9.2286,29.66334-7.251,50.75727-14.50208,40.86949-14.50208,40.86949,45.48379-15.82044,70.53284-46.143,54.0532-58.00831,54.0532-58.00831-34.93683,52.07564-34.93683,54.0532-21.09393,22.4123-18.45719,34.93682-40.2103,27.0266-40.2103,27.0266l-43.50624,25.04905L775.48869,374.353s56.68994,1.31837,86.35328,34.93683S965.33407,452.796,965.33407,452.796L923.8054,464.00218s-39.55113-13.1837-77.12469-37.57356-33.61846-46.143-80.42062-21.75312-110.74314,44.82461-110.74314,44.82461,36.91438-17.13882,103.4921,24.38985,137.76975,13.8429,137.76975,13.8429-15.82045,30.32252-49.43891,32.30008-121.2901-53.394-150.95345-37.57357-43.50623-3.95511-55.37157,35.596S607.39642,665.71291,632.44546,726.358l25.049,60.645Z" transform="translate(-172.33407 -111.99716)" fill="#3f3d56"/><path d="M763.30491,350.62228c-17.67286,34.81036-85.38147,43.51507-110.15955,45.55584-.69482,8.936-1.153,14.58716-1.153,14.58716s97.55944-3.296,119.3125-46.143,23.73071-127.882,44.8247-141.72486c2.23706-1.46807,4.68335-2.97338,7.26636-4.49127.72461-2.66052,1.21326-4.23523,1.21326-4.23523l44.1654-36.25519s-39.551,17.1388-60.645,30.98169S785.05808,307.77523,763.30491,350.62228Z" transform="translate(-172.33407 -111.99716)" opacity="0.1"/><path d="M823.11106,296.99368a75.56771,75.56771,0,0,1-12.25489,22.804s39.60474-13.7785,65.25391-40.26007c4.98438-10.93652,16.39526-22.383,16.39526-23.838,0-1.9776,34.93677-54.05322,34.93677-54.05322s-29.00415,27.68579-54.05322,58.0083C859.1926,276.83981,838.435,289.36465,823.11106,296.99368Z" transform="translate(-172.33407 -111.99716)" opacity="0.1"/><path d="M584.66575,308.43441c-.45484-.38989-.89039-.80285-1.31519-1.22766,1.98145,6.0733,4.94556,11.4823,9.31519,15.22766,18.45727,15.82044,42.847,44.82459,42.847,44.82459l-5.27356-94.92267s-.86951-51.72412,39.91638-89.04468a317.188,317.188,0,0,1,25.2533-25.81067l49.439-30.98175L696.72727,146.934c-75.8064,33.61847-74.488,111.40235-74.488,111.40235l5.27356,94.92267S603.123,324.25485,584.66575,308.43441Z" transform="translate(-172.33407 -111.99716)" opacity="0.1"/><path d="M649.62851,284.02743c-.14392,16.22967-2.25036,25.88245-2.25036,25.88245s36.89892-47.441,80.39331-63.27155c2.57055-1.62622,5.17846-3.22736,7.84765-4.78162,52.07569-30.32257,61.30433-73.16961,61.30433-73.16961L827.246,132.43191l-36.91443,29.00415s-27.02661,55.37158-70.53272,71.192C690.143,243.412,663.55491,268.8934,649.62851,284.02743Z" transform="translate(-172.33407 -111.99716)" opacity="0.1"/><path d="M592.66575,441.08779v14.50208s39.55114-37.57355,36.9143-50.09809c-2.01636-9.5783-4.43066-29.17681-16.65332-45.82989,5.5094,12.585,7.18628,24.8609,8.65332,31.82989,1.89087,8.98127-17.91138,30.842-29.26758,42.493A30.06057,30.06057,0,0,1,592.66575,441.08779Z" transform="translate(-172.33407 -111.99716)" opacity="0.1"/><path d="M539.61155,341.567c.31323.66809.63623,1.3255.97851,1.9613,10.1084,18.77271,25.348,38.72785,36.75025,57.0578C568.125,382.43374,552.08762,361.67617,539.61155,341.567Z" transform="translate(-172.33407 -111.99716)" opacity="0.1"/><path d="M760.009,473.89c-21.68445-13.52594-40.219-20.82514-55.35962-24.5232-15.88233,5.978-28.9541,10.43525-35.5315,12.62384,11.79615-3.05352,45.97168-7.1098,98.89112,25.89936,41.5205,25.8988,84.833,24.87793,111.55591,20.44134a69.06588,69.06588,0,0,0,18.21386-20.59851S826.58677,515.4186,760.009,473.89Z" transform="translate(-172.33407 -111.99716)" opacity="0.1"/><path d="M571.74839,313.5032c-5.31568-13.02454-6.19153-28.52258-.0846-46.68335a142.46131,142.46131,0,0,1,1.1366-19.68964L583.17991,202.729c-1.9137,6.40307-6.29224,18.75567-16.31226,41.76446C554.18284,273.62173,558.917,296.383,571.74839,313.5032Z" transform="translate(-172.33407 -111.99716)" opacity="0.1"/><path d="M862.842,409.28976c-20.57165-23.31452-54.13623-31.09253-72.782-33.67139l-5.57129,12.73456s56.68994,1.31842,86.35327,34.93683c16.44959,18.64294,46.47706,29.98529,69.96827,36.39361l25.5238-6.88733S892.50534,442.90823,862.842,409.28976Z" transform="translate(-172.33407 -111.99716)" opacity="0.1"/><path d="M459.51023,400.21829c27.68579-11.86536-10.54688-78.44306-10.54688-78.44306l-1.0459-.47937c9.53162,20.11048,23.35535,56.45276,3.59278,64.92243-18.49243,7.92535-35.806-11.79218-45.26685-25.762.34351.988.53211,1.5293.53211,1.5293S431.82444,412.08364,459.51023,400.21829Z" transform="translate(-172.33407 -111.99716)" opacity="0.1"/><path d="M549.8187,443.06533s8.34241-25.71472-7.32971-41.59143c3.84314,13.67755-.67029,27.59143-.67029,27.59143-10.19861-22.94671-45.24243-32.87408-60.59216-36.19415.59533,7.63971.696,12.6206.696,12.6206S536.635,413.402,549.8187,443.06533Z" transform="translate(-172.33407 -111.99716)" opacity="0.1"/><path d="M583.17991,202.729c1.48547-4.9704,1.48584-6.35608,1.48584-6.35608Z" transform="translate(-172.33407 -111.99716)" opacity="0.1"/><path d="M254.10361,466.922c.13294-.04279.26795-.08191.4-.12592,27.68579-9.22863,51.4165-44.16546,75.80639-56.03076s38.89185-27.68579,71.85108-10.547c0,0-5.76612-23.60236-16.93994-39.10883a153.78711,153.78711,0,0,1,8.93994,25.10883c-32.95923-17.1388-47.46131-1.31836-71.85108,10.547s-48.1206,46.80213-75.80639,56.03076-73.16956-9.22863-73.16956-9.22863,30.32251,19.11639,69.21448,22.41229C246.99753,466.35671,250.79367,466.68942,254.10361,466.922Z" transform="translate(-172.33407 -111.99716)" opacity="0.1"/><path d="M230.6832,307.77523a125.86582,125.86582,0,0,0,16.05335,9.40528,53.02329,53.02329,0,0,1,14.35888,4.59472c19.93177,9.75379,61.14014,12.41364,88.0022,13.07062,1.71167-.20557,3.34033-.43842,4.85327-.70319a17.2686,17.2686,0,0,1,9.25464.89771c6.97876.02093,11.26978-.08142,11.26978-.08142s-7.251-96.24109-21.09388-102.833c-.10449-.04974-.19616-.10565-.29809-.15662,8.8175,28.28718,13.392,88.98957,13.392,88.98957s-82.39808,1.97754-113.37989-13.18372-67.23681,5.93268-67.23681,5.93268C199.70151,307.116,230.6832,307.77523,230.6832,307.77523Z" transform="translate(-172.33407 -111.99716)" opacity="0.1"/><path d="M528.926,787.003c12.07812-37.02557,41.125-139.41113,18.256-207.48632-9.8761-29.39881-19.03027-48.14557-26.76892-60.10535,5.78723,11.32153,12.1145,26.29688,18.76892,46.10535C567.527,649.89242,516.11045,787.003,516.11045,787.003Z" transform="translate(-172.33407 -111.99716)" opacity="0.1"/><path d="M271.49558,506.21871A67.28945,67.28945,0,0,1,294.714,512.939c27.07141,13.53564,47.15723,22.12006,71.61438,12.15,5.57141-2.94317,11.80323-6.5852,18.99-10.92114.56031-.40887,1.11524-.80133,1.68164-1.22882,34.93677-26.36743,83.05738-60.64508,129.85938-40.21033,0,0-9.45886-9.27435-20.062-18.08093C453.9,444.12447,410.9404,474.833,379,498.939c-34.93689,26.36743-58.0083,17.13879-92.286,0s-69.21447,1.97754-69.21447,1.97754C242.96872,500.15243,259.38034,502.44045,271.49558,506.21871Z" transform="translate(-172.33407 -111.99716)" opacity="0.1"/><path d="M338.40513,211.72677a17.2436,17.2436,0,0,0,2.71081,3.46558A19.45426,19.45426,0,0,0,338.40513,211.72677Z" transform="translate(-172.33407 -111.99716)" opacity="0.1"/><path d="M458.85105,319.13851a32.09424,32.09424,0,0,1,2.85779,3.08112c-2.88758-6.94153-6.4535-12.94391-10.85779-17.08112-21.753-20.43475-57.34912-19.11639-57.34912-19.11639L438.143,306.48263A63.74971,63.74971,0,0,1,458.85105,319.13851Z" transform="translate(-172.33407 -111.99716)" opacity="0.1"/><path d="M506.22263,229.99136c2.69019,3.88568,1.17871,20.37591-1.2771,37.241a167.20277,167.20277,0,0,0,16.3457,100.71418,117.30214,117.30214,0,0,0,7.02381,12.05719,167.36175,167.36175,0,0,1-15.36951-98.77137c2.45581-16.865,3.96729-33.35528,1.2771-37.241C508.29,235.422,483.24094,182.6871,481.2634,168.8442a95.93134,95.93134,0,0,1-.413-16.17493c-5.12049-14.5285-5.6095-40.67211-5.6095-40.67211s-3.95508,29.00421-1.97754,42.847S500.29,221.422,506.22263,229.99136Z" transform="translate(-172.33407 -111.99716)" opacity="0.1"/><path d="M522.13291,239.377s6.387-13.1167,15.25232-22.45209c.70386-2.60486,1.13745-4.07239,1.13745-4.07239s22.41235-18.45721,30.32263-34.27765c6.12317-12.24627,1.5835-31.59271-.781-39.7135,3.927,18.70551-15.30236,50.65558-28.22314,56.19312-11.20483,4.80206-21.11145,21.69275-24.48132,27.95764C519.33054,232.45406,522.13291,239.377,522.13291,239.377Z" transform="translate(-172.33407 -111.99716)" opacity="0.1"/><path d="M568.0643,138.86141a18.863,18.863,0,0,0-1.19665-3.79272S567.37424,136.49136,568.0643,138.86141Z" transform="translate(-172.33407 -111.99716)" opacity="0.1"/><path d="M335.23728,205.25c5.80957.71118,12.49219,2.49366,17.5896,6.62751-.33252-1.12464-.62256-2.13282-.85352-2.98-5.93274-21.75311-37.57361-17.798-37.57361-17.798C328.6987,192.93264,332.39206,199.04855,335.23728,205.25Z" transform="translate(-172.33407 -111.99716)" opacity="0.1"/><path d="M956.86436,753.13486c-9.831,15.07625-7.13727,34.2513-7.13727,34.2513s18.63284-5.26838,28.46381-20.34463,7.13727-34.2513,7.13727-34.2513S966.69533,738.05861,956.86436,753.13486Z" transform="translate(-172.33407 -111.99716)" fill="#3f3d56"/><path d="M964.249,755.80038c-.77706,17.98159-14.12518,32.00893-14.12518,32.00893s-12.08824-15.12656-11.31118-33.10814,14.12518-32.00893,14.12518-32.00893S965.02607,737.8188,964.249,755.80038Z" transform="translate(-172.33407 -111.99716)" fill="#ff9f00"/><path d="M791.09565,642.00747s11.312-11.86732,15.94175-9.47984-13.3119,12.99944-13.3119,12.99944Z" transform="translate(-172.33407 -111.99716)" fill="#ffb9b9"/><path d="M791.09565,642.00747s11.312-11.86732,15.94175-9.47984-13.3119,12.99944-13.3119,12.99944Z" transform="translate(-172.33407 -111.99716)" opacity="0.1"/><path d="M756.58184,616.10619s-4.15828,7.45338-3.07015,15.48817,11.03942,33.81741,14.42249,33.35925,28.44317-18.92439,28.44317-18.92439l-4.77955-6.67359-18.30725,11.0921S770.50172,610.77593,756.58184,616.10619Z" transform="translate(-172.33407 -111.99716)" fill="#d0cde1"/><path d="M824.46364,634.25051l-28.53941,15.67632a1.35917,1.35917,0,0,1-1.99837-.5895l-6.99131-14.61354a1.82416,1.82416,0,0,1,.935-2.19057l23.69488-12.21336a1.38345,1.38345,0,0,1,1.813.3466L825.21332,631.817A1.75765,1.75765,0,0,1,824.46364,634.25051Z" transform="translate(-172.33407 -111.99716)" fill="#2f2e41"/><polygon points="650.225 520.094 623.47 535.387 616.35 522.555 639.302 510.073 650.225 520.094" fill="#ff9f00"/><ellipse cx="799.853" cy="627.45637" rx="0.39386" ry="0.33582" transform="translate(-366.69313 727.6118) rotate(-50.15848)" fill="#f2f2f2"/><ellipse cx="809.78689" cy="640.58483" rx="0.26258" ry="0.22388" transform="translate(-373.20383 739.95673) rotate(-50.15848)" fill="#f2f2f2"/><path d="M756.58184,616.10619s-4.15828,7.45338-3.07015,15.48817,11.03942,33.81741,14.42249,33.35925,28.44317-18.92439,28.44317-18.92439l-4.77955-6.67359-18.30725,11.0921S770.50172,610.77593,756.58184,616.10619Z" transform="translate(-172.33407 -111.99716)" opacity="0.1"/><path d="M783.44793,644.27509s12.80232-10.24186,17.06976-7.25465-14.936,11.09535-14.936,11.09535Z" transform="translate(-172.33407 -111.99716)" fill="#ffb9b9"/><circle cx="594.04409" cy="478.93493" r="12.37558" fill="#ffb9b9"/><path d="M809.05257,677.13438s13.22907,1.707,12.80232,9.81512S811.613,728.77042,811.613,728.77042l-.85349,13.22906s.85349,22.1907-1.707,21.764-8.53488-15.78953-8.53488-15.78953-7.25465-4.69418-3.8407-8.96162,5.97442-3.8407,5.12093-8.53489-.42674-24.32441,2.13372-30.29883,4.05243-9.26959,4.05243-9.26959l-8.31987-.54552Z" transform="translate(-172.33407 -111.99716)" fill="#ffb9b9"/><path d="M809.05257,677.13438s13.22907,1.707,12.80232,9.81512S811.613,728.77042,811.613,728.77042l-.85349,13.22906s.85349,22.1907-1.707,21.764-8.53488-15.78953-8.53488-15.78953-7.25465-4.69418-3.8407-8.96162,5.97442-3.8407,5.12093-8.53489-.42674-24.32441,2.13372-30.29883,4.05243-9.26959,4.05243-9.26959l-8.31987-.54552Z" transform="translate(-172.33407 -111.99716)" opacity="0.1"/><path d="M809.90606,679.26811s12.80232,2.9872,14.08255,11.52209S831.67,724.503,831.67,724.503l6.8279,15.78953s10.6686,19.20348,5.97442,18.77674-11.09535-9.81512-13.22907-9.81512-8.53488-2.56046-8.10813-4.26744,3.414-6.8279,3.414-6.8279l-10.32454-17.98468a43.68247,43.68247,0,0,1-4.47815-11.08309c-1.06057-4.21218-2.26707-9.37191-2.26707-11.04618,0-2.9872-8.53489-4.26744-8.53489-4.26744Z" transform="translate(-172.33407 -111.99716)" fill="#ffb9b9"/><path d="M768.08514,651.95648l5.97442,17.06977s9.38837,2.56046,16.21627,4.69418,19.63023-.85349,20.91046,4.26744-2.56046,14.08256-6.40116,16.21628-5.97442,4.26744-18.35.85349-41.82092-4.26744-41.82092-4.26744a21.39177,21.39177,0,0,1-9.38837,2.9872c-5.54768.42675-6.82791.85349-8.53488-.42674s.85348-1.28023,1.707-4.69419,1.28023-2.13372,5.12093-5.97441,6.82791-15.36279,8.96163-19.20349,3.414-11.52209,3.414-11.52209Z" transform="translate(-172.33407 -111.99716)" fill="#2f2e41"/><path d="M767.23165,601.17394a12.49559,12.49559,0,0,0-5.12093,9.81511c0,6.40116-12.80232-6.8279-12.80232-6.8279s6.82791-8.53488,6.82791-11.09535S767.23165,601.17394,767.23165,601.17394Z" transform="translate(-172.33407 -111.99716)" fill="#ffb9b9"/><path d="M751.01538,598.61348s7.68139,2.9872,9.38837,7.25464,8.10814,13.22907,8.10814,13.22907,8.96162,9.38837,5.97441,19.63023-5.54767,12.80232-5.54767,14.5093-4.26744,4.69418-7.68139,4.26744-16.21628-2.13372-17.06977-3.8407-5.97441-26.03139-2.56046-34.993A207.06676,207.06676,0,0,1,751.01538,598.61348Z" transform="translate(-172.33407 -111.99716)" fill="#d0cde1"/><path d="M769.96757,591.49521c2.7694.65727,5.48713-1.10722,7.75636-2.85664,1.28856-.99339,2.70672-2.41,2.31192-4.0088-.35026-1.41836-2.02117-2.22231-2.26435-3.66384-.169-1.00169.41654-1.97623.464-2.99152a4.22577,4.22577,0,0,0-2.48441-3.62394c-1.3493-.72658-2.87961-1.0295-4.26575-1.67973-2.11673-.993-3.87592-2.78292-6.13659-3.35629-3.0884-.78332-6.23312.88448-9.40831,1.10039-1.92153.13066-3.8676-.27452-5.76848.0407a8.23441,8.23441,0,0,0-6.59705,7.77339c-.02449,1.35819.24692,2.87349-.56352,3.95064a5.97766,5.97766,0,0,1-1.08592.98314c-2.82372,2.2835-4.10575,6.09851-4.25151,9.77387-.07174,1.80894.30717,3.95783,1.91207,4.72676a7.08811,7.08811,0,0,0,2.67525.37168,2.79426,2.79426,0,0,1,2.36206,1.12773c.731,1.28961-.36425,3.19439.592,4.31981.7183.84535,2.11936.56459,2.95821-.15572s1.362-1.75625,2.15718-2.52648c1.54685-1.49827,3.84134-1.76986,5.96156-1.99763a3.024,3.024,0,0,0,1.74865-.57341,2.70264,2.70264,0,0,0,.71719-1.47043,9.1133,9.1133,0,0,0,.01057-3.8609,2.14631,2.14631,0,0,1-.04885-1.22235,1.73436,1.73436,0,0,1,.62589-.701c1.31411-.98713,3.6162-2.4244,5.324-2.15253C766.565,589.12377,768.05589,591.04151,769.96757,591.49521Z" transform="translate(-172.33407 -111.99716)" fill="#2f2e41"/><path d="M752.72235,613.97626s-5.12092,6.82791-5.12092,14.936,6.40116,34.993,9.81511,34.993,30.72557-14.936,30.72557-14.936l-3.84069-7.25465-19.63023,8.53488S767.23165,610.56231,752.72235,613.97626Z" transform="translate(-172.33407 -111.99716)" fill="#d0cde1"/><rect x="540.33167" y="579.00586" width="98" height="19" fill="#ff9f00"/><path d="M761.66593,711.00284a8.00916,8.00916,0,0,1-8-8v-225a8.00009,8.00009,0,0,1,13.05078-6.2041l-1.26368,1.55078a5.99956,5.99956,0,0,0-9.7871,4.65332v225a6.00655,6.00655,0,0,0,6,6Z" transform="translate(-172.33407 -111.99716)" fill="#3f3d56"/><rect x="49.33185" y="674.00569" width="806" height="2" fill="#3f3d56"/><ellipse cx="744.66575" cy="583.00301" rx="1" ry="3" transform="translate(-373.33317 482.73591) rotate(-38.76825)" fill="#ff9f00"/><path d="M660.86436,753.13486c-9.831,15.07625-7.13727,34.2513-7.13727,34.2513s18.63284-5.26838,28.46381-20.34463,7.13727-34.2513,7.13727-34.2513S670.69533,738.05861,660.86436,753.13486Z" transform="translate(-172.33407 -111.99716)" fill="#3f3d56"/><path d="M668.249,755.80038c-.77706,17.98159-14.12518,32.00893-14.12518,32.00893s-12.08824-15.12656-11.31118-33.10814,14.12518-32.00893,14.12518-32.00893S669.02607,737.8188,668.249,755.80038Z" transform="translate(-172.33407 -111.99716)" fill="#ff9f00"/><path d="M499.07537,758.83791c4.7,17.37387,20.79838,28.134,20.79838,28.134s8.47829-17.40854,3.77833-34.78242-20.79839-28.134-20.79839-28.134S494.37541,741.464,499.07537,758.83791Z" transform="translate(-172.33407 -111.99716)" fill="#3f3d56"/><path d="M505.98163,755.10407c12.89676,12.55448,14.472,31.85363,14.472,31.85363s-19.33453-1.05568-32.23129-13.61015-14.472-31.85363-14.472-31.85363S493.08487,742.5496,505.98163,755.10407Z" transform="translate(-172.33407 -111.99716)" fill="#ff9f00"/><path d="M463.23615,284.04377c-1.12118,17.96341-14.7354,31.73264-14.7354,31.73264s-11.79643-15.35522-10.67525-33.31863,14.73539-31.73264,14.73539-31.73264S464.35733,266.08036,463.23615,284.04377Z" transform="translate(-172.33407 -111.99716)" fill="#ff9f00"/><path d="M321.32,170.48223c15.22509,9.59884,20.77832,28.14878,20.77832,28.14878s-19.13153,2.98715-34.35663-6.61169-20.77832-28.14878-20.77832-28.14878S306.09488,160.88339,321.32,170.48223Z" transform="translate(-172.33407 -111.99716)" fill="#ff9f00"/><path d="M287.32,389.48223c15.22509,9.59884,20.77832,28.14878,20.77832,28.14878s-19.13153,2.98715-34.35663-6.61169-20.77832-28.14878-20.77832-28.14878S272.09488,379.88339,287.32,389.48223Z" transform="translate(-172.33407 -111.99716)" fill="#ff9f00"/><path d="M368.32,473.48223c15.22509,9.59884,20.77832,28.14878,20.77832,28.14878s-19.13153,2.98715-34.35663-6.61169-20.77832-28.14878-20.77832-28.14878S353.09488,463.88339,368.32,473.48223Z" transform="translate(-172.33407 -111.99716)" fill="#ff9f00"/><path d="M596.83968,202.49827c-4.59147,17.40286-20.62244,28.26318-20.62244,28.26318s-8.58674-17.35531-3.99527-34.75817,20.62244-28.26318,20.62244-28.26318S601.43114,185.09541,596.83968,202.49827Z" transform="translate(-172.33407 -111.99716)" fill="#ff9f00"/><path d="M741.67517,216.0677c-5.39655,17.17028-21.91567,27.27261-21.91567,27.27261s-7.76958-17.73618-2.373-34.90646,21.91567-27.27261,21.91567-27.27261S747.07173,198.89742,741.67517,216.0677Z" transform="translate(-172.33407 -111.99716)" fill="#ff9f00"/><path d="M898.21957,407.16487c-9.77548,15.11228-28.38884,20.44911-28.38884,20.44911s-2.76415-19.165,7.01134-34.2773,28.38884-20.44911,28.38884-20.44911S907.99506,392.05259,898.21957,407.16487Z" transform="translate(-172.33407 -111.99716)" fill="#ff9f00"/></svg>